<svg width="580" height="400" xmlns="http://www.w3.org/2000/svg" stroke="null">
 <!-- Created with SVG Editor - http://github.com/mzalive/SVG Editor/ -->

 

 <g stroke="null">
  <title stroke="null">Layer 1</title>
  <!-- Created with SVG Editor - http://github.com/mzalive/SVG Editor/ -->
  <g stroke="null" id="svg_51">
   <g opacity="0" stroke="null" transform="matrix(1.2151598168349111,0,0,1.1290055958903589,-4523.57562764096,-3167.185342673578) " id="svg_48">
    <title stroke="null" transform="translate(0.8350550532341003,0) translate(-21.7114315032959,2.6855478286743164) translate(31.583391189575195,38.443294525146484) translate(85.53092193603516,128.04632568359375) translate(140.6424102783203,101.12675476074219) translate(136.58665466308594,277.4945373535156) translate(3349.74169921875,0) translate(0,2251.12451171875) ">background</title>
    <rect stroke="null" x="3722.208701" y="2797.920972" width="472" height="365" id="svg_46" fill="#fff"/>
    <g stroke="null" id="svg_45" display="none">
     <rect stroke="null" id="svg_49" width="580" height="400" x="3723.208701" y="2798.920972" stroke-width="0" fill="url(#gridpattern)"/>
    </g>
   </g>
   <g stroke="null" transform="matrix(1.2151598168349111,0,0,1.1290055958903589,-4523.57562764096,-3167.185342673578) " id="svg_50">
    <title stroke="null" transform="translate(2.46881103515625,-0.8857352137565613) translate(0.8350550532341003,0) translate(-21.7114315032959,2.6855478286743164) translate(31.583391189575195,38.443294525146484) translate(85.53092193603516,128.04632568359375) translate(140.6424102783203,101.12675476074219) translate(136.58665466308594,277.4945373535156) translate(3349.74169921875,0) translate(0,2251.12451171875) ">Layer 1</title>
    <!-- Created with SVG Editor - http://github.com/mzalive/SVG Editor/ -->
    <g stroke="null" id="svg_25">
     <g opacity="0" stroke="null" id="svg_41" transform="matrix(0.8535346275155087,0,0,0.9859082425274454,-4498.589108510263,-3663.9641172037714) ">
      <title stroke="null" transform="translate(9.094947017729282e-13,-2837.6533203125) translate(1.1715986728668213,0) translate(2.892455577850342,-0.8983951807022095) translate(0.9783493280410767,0) translate(1.1715986728668213,0) translate(-25.437084197998047,2.7239327430725098) translate(37.00305938720703,38.99277114868164) translate(100.2079086303711,129.8765106201172) translate(164.77645874023438,102.57217407226562) translate(160.0247344970703,281.4608154296875) translate(3924.552734375,0) translate(9.094947017729282e-13,2283.30029296875) ">background</title>
      <rect stroke="null" fill="#fff" id="svg_44" height="402" width="582" y="3720.051674" x="9651.498377"/>
      <g stroke="null" display="none" id="svg_42">
       <rect stroke="null" fill="url(#gridpattern)" stroke-width="0" y="3721.051674" x="9652.498377" height="400" width="580" id="svg_43"/>
      </g>
     </g>
     <g stroke="null" id="svg_26" transform="matrix(0.8535346275155087,0,0,0.9859082425274454,-4498.589108510263,-3663.9641172037714) ">
      <title stroke="null" transform="translate(1.1715986728668213,0) translate(2.892455577850342,-0.8983951807022095) translate(0.9783493280410767,0) translate(1.1715986728668213,0) translate(-25.437084197998047,2.7239327430725098) translate(37.00305938720703,38.99277114868164) translate(100.2079086303711,129.8765106201172) translate(164.77645874023438,102.57217407226562) translate(160.0247344970703,281.4608154296875) translate(3924.552734375,0) translate(9.094947017729282e-13,2283.30029296875) ">Layer 1</title>
      <metadata stroke="null" transform="translate(1.1715986728668213,0) translate(2.892455577850342,-0.8983951807022095) translate(0.9783493280410767,0) translate(1.1715986728668213,0) translate(-25.437084197998047,2.7239327430725098) translate(37.00305938720703,38.99277114868164) translate(100.2079086303711,129.8765106201172) translate(164.77645874023438,102.57217407226562) translate(160.0247344970703,281.4608154296875) translate(3924.552734375,0) translate(9.094947017729282e-13,2283.30029296875) ">Created by potrace 1.16, written by Peter Selinger 2001-2019</metadata>
      <g stroke="null" id="svg_27">
       <g stroke="null" id="svg_28" fill="#000000" transform="matrix(0.058940471599173774,0,0,-0.046556700968906954,-15493.167438728635,-7752.4059498316765) ">
        <path stroke="null" id="svg_40" d="m434409.51207,-306009.057742c-6,-18 3,-37 19,-37c8,0 14,-7 14,-16c0,-14 -3,-14 -16,-4c-13,12 -15,8 -13,-28c2,-27 8,-42 16,-42c15,0 17,-16 3,-25c-15,-9 -12,-25 5,-25c8,0 15,-8 15,-18c0,-10 4,-22 10,-28c5,-5 11,-20 13,-33c4,-24 7,-24 100,-26c86,-1 97,0 97,16c0,9 -7,19 -15,23c-16,6 -21,36 -6,36c5,0 16,3 25,6c11,4 16,1 16,-10c0,-9 -8,-16 -17,-16c-16,-1 -16,-2 1,-15c21,-16 47,-4 43,18c-1,7 10,13 26,15c27,3 38,-12 15,-21c-10,-4 -10,-6 0,-6c7,-1 12,-15 12,-34c0,-29 4,-33 28,-35c15,-1 51,-6 80,-11c36,-5 52,-5 52,3c0,6 5,4 10,-4c8,-11 12,-12 18,-3c4,7 34,13 70,14c53,2 62,5 62,21c0,18 1,18 22,-2c25,-23 46,-26 98,-17c14,2 19,2 13,0c-7,-3 -13,-8 -13,-12c0,-4 -44,-7 -97,-6c-54,1 -70,0 -35,-2c38,-2 60,-8 57,-14c-4,-6 14,-8 49,-5c31,3 58,1 61,-4c4,-6 13,-7 23,-1c9,5 26,5 37,0c11,-4 16,-8 10,-9c-13,-1 66,-39 83,-40c9,0 12,48 12,205l0,205l-499,0c-377,-1 -500,-4 -504,-13z"/>
        <path stroke="null" id="svg_39" d="m428406.51207,-306995.057742c-22,-10 -48,-30 -57,-44c-19,-29 -23,-102 -7,-112c6,-4 10,10 10,34c0,33 7,47 38,81c63,65 108,49 100,-38c-7,-61 -38,-132 -59,-132c-9,0 -24,9 -34,20c-18,20 -45,27 -45,11c0,-5 7,-14 15,-21c9,-7 25,-25 35,-40c19,-27 19,-27 -1,-49c-32,-35 -15,-36 19,-1c20,20 36,28 47,23c14,-5 16,-2 11,15c-4,12 2,55 13,97c21,76 26,130 15,159c-8,21 -48,19 -100,-3z"/>
        <path stroke="null" id="svg_38" d="m429387.51207,-307513.057742c-103,-15 -370,-106 -434,-149c-24,-16 -56,-36 -71,-44c-89,-48 -140,-160 -140,-306c0,-78 21,-195 46,-258c19,-50 96,-170 140,-219c37,-40 42,-62 19,-70c-8,-4 -26,-30 -41,-59c-47,-92 -25,-182 71,-296c25,-29 45,-56 45,-61c0,-16 -139,-31 -310,-33c-213,-2 -294,-14 -298,-43c-3,-23 15,-66 58,-140c16,-27 32,-63 35,-78c10,-41 85,-109 142,-130c28,-10 77,-17 119,-17c73,0 118,-10 167,-37c16,-8 63,-19 105,-25c99,-12 141,-24 170,-48l23,-19l-55,-72c-30,-40 -56,-82 -58,-93c-3,-20 -9,-21 -163,-22c-156,0 -162,-1 -225,-31c-36,-16 -77,-41 -92,-54c-14,-13 -35,-31 -45,-40c-112,-97 -151,-272 -100,-454c13,-49 32,-107 41,-129c23,-55 21,-63 -22,-85c-68,-35 -90,-90 -67,-168c8,-27 26,-60 40,-73c14,-13 25,-27 25,-31c0,-5 -28,-17 -62,-27c-49,-15 -98,-20 -222,-21c-88,-1 -168,-6 -178,-12c-19,-10 -24,-38 -10,-54c5,-6 19,-38 32,-73c16,-43 34,-72 58,-92c64,-53 110,-63 292,-66c121,-1 174,-6 200,-17c39,-17 65,-42 74,-72c7,-26 -34,-71 -189,-207c-120,-105 -140,-126 -200,-208c-33,-46 -39,-63 -40,-106c0,-55 -2,-59 -86,-158c-38,-45 -61,-82 -69,-114c-6,-26 -17,-58 -23,-71c-18,-37 -15,-246 5,-306c9,-27 20,-70 23,-95c9,-58 72,-226 98,-264c26,-37 81,-99 130,-148c20,-21 42,-49 47,-62c10,-26 27,-250 34,-426c2,-58 -1,-226 -6,-373c-6,-201 -5,-289 4,-350c7,-45 11,-132 9,-194c-2,-107 -1,-112 20,-124c14,-7 43,-9 78,-6c31,4 61,3 67,-1c6,-4 27,-34 47,-67l37,-60l-21,-65c-27,-89 -23,-109 26,-126c56,-19 184,-18 213,1c12,9 35,35 51,59c26,37 36,44 74,49c85,12 275,116 343,189c52,55 138,174 176,243c74,132 106,257 109,417c1,94 10,122 24,77c4,-12 31,-49 60,-83c29,-35 56,-72 59,-84c8,-23 72,-74 119,-94c15,-7 25,-17 23,-23c-19,-43 -48,-194 -40,-206c3,-5 24,-12 47,-16l42,-7l-48,-10c-75,-17 -53,-31 43,-28c47,1 104,3 128,3c27,0 45,6 49,15c3,8 17,14 31,14c14,0 55,9 91,21c36,12 71,23 78,24c6,2 14,17 17,34c3,17 9,44 12,61c5,27 10,30 66,41c34,7 72,22 88,36c33,27 43,28 61,7c14,-18 99,-77 170,-119c55,-32 206,-105 219,-105c5,0 9,-32 9,-71c-1,-39 3,-75 8,-79c13,-13 173,-21 194,-9c10,5 28,27 39,49c11,21 24,42 30,45c6,4 37,-8 68,-27c31,-18 85,-46 119,-62c34,-16 60,-33 57,-38c-3,-4 6,-8 19,-8c13,0 62,-18 109,-39c47,-22 111,-44 143,-50c32,-6 60,-13 62,-15c3,-2 -2,-36 -10,-76c-13,-61 -13,-73 0,-85c23,-24 79,-28 161,-12c77,15 103,15 457,3c160,-5 138,6 -38,20c-67,5 -103,12 -114,22c-11,11 -17,12 -22,4c-5,-8 -17,-9 -38,-3c-17,5 -34,7 -37,4c-2,-3 -23,-2 -45,2l-41,7l7,61l6,62l103,107c98,102 146,173 179,263c13,37 2,224 -20,340c-37,188 -99,259 -328,373c-100,50 -161,75 -207,83c-36,6 -87,17 -115,24c-27,8 -93,21 -145,30c-52,9 -122,29 -155,44c-109,51 -193,163 -226,303c-11,45 -28,112 -39,148c-10,36 -28,121 -40,190c-22,126 -65,256 -107,320c-29,44 -29,46 6,58c38,13 136,137 196,246c36,66 52,87 76,95c45,15 122,23 136,13c7,-4 20,-46 28,-92c64,-339 172,-589 312,-721c56,-53 188,-139 274,-178c40,-18 98,-44 127,-57c29,-13 57,-24 63,-24c16,0 231,-109 252,-128c21,-18 18,-63 -9,-157c-12,-45 -12,-69 1,-195c13,-121 20,-155 47,-214c32,-70 59,-117 97,-166c17,-21 19,-35 13,-90c-7,-65 -7,-65 -41,-70c-19,-3 -36,-10 -38,-17c-3,-8 6,-10 29,-7c29,5 36,2 46,-20c13,-30 12,-31 -53,-41c-33,-4 -57,-15 -72,-31c-27,-30 -48,-27 192,-25c113,1 135,3 135,16c0,12 -20,15 -117,17c-107,1 -112,2 -53,8c36,4 115,9 175,10c96,1 210,13 195,20c-3,1 -19,3 -37,5c-94,8 -76,35 23,35c57,0 76,4 80,15c5,11 22,15 62,15c96,0 51,9 -72,14c-65,3 -120,7 -123,10c-3,2 0,13 6,23c6,12 30,24 62,31c65,15 214,100 228,129c5,12 19,32 30,45c11,13 27,32 35,43c20,27 29,16 69,-81c31,-73 123,-219 171,-272c12,-12 36,-32 54,-44c33,-20 33,-22 26,-72c-4,-28 -8,-76 -8,-106l-1,-55l-140,-7c-77,-4 -167,-11 -200,-17c-33,-5 -90,-13 -128,-17c-69,-6 -90,-17 -60,-28c22,-9 442,3 518,14c33,5 131,10 218,11c97,1 157,5 157,12c0,6 28,7 78,3c42,-3 149,-10 237,-15c310,-18 475,-39 504,-65c19,-16 118,-28 126,-15c8,11 -22,23 -110,43c-79,17 -100,20 -280,41c-186,22 -201,25 -184,36c15,9 -20,14 -94,11c-24,0 -35,3 -31,10c5,7 -1,9 -17,5c-42,-10 -187,-20 -203,-14c-14,5 -12,13 9,53c14,26 28,65 32,87c5,33 15,46 62,81c111,81 208,193 240,276c8,19 22,44 32,55c32,38 68,123 80,191c14,83 6,280 -16,374c-25,109 -98,253 -163,322c-36,39 -143,91 -230,113c-119,29 -205,10 -341,-77c-25,-15 -51,-28 -59,-28c-8,0 -48,-32 -89,-70c-41,-39 -86,-73 -99,-76c-33,-9 -116,40 -190,111c-70,68 -135,161 -127,181c3,8 -15,36 -38,62c-24,27 -50,66 -58,88c-7,21 -26,73 -41,114c-16,41 -36,120 -45,175c-21,127 -33,194 -50,275c-8,36 -30,164 -50,285c-20,121 -40,233 -45,248c-16,48 -99,165 -123,173c-12,4 -33,14 -47,24c-14,10 -49,26 -78,36c-29,11 -69,32 -88,47c-48,40 -99,137 -127,243c-33,121 -26,140 67,179c46,20 76,40 97,67c17,21 37,38 45,38c8,0 20,12 27,27c6,14 24,38 38,53c17,16 29,42 34,71c4,24 13,66 21,93c8,27 14,61 14,75c0,14 7,40 16,56c9,17 18,57 21,90c3,33 12,67 19,76c24,27 20,112 -7,156c-12,21 -26,63 -31,93c-17,121 -21,136 -48,171c-19,24 -27,44 -23,57c6,26 -24,119 -42,129c-8,5 -18,37 -24,71c-10,65 -73,196 -127,268c-16,20 -35,57 -44,83c-12,38 -25,53 -75,86c-33,22 -98,56 -145,75c-76,30 -95,34 -175,33c-72,-1 -105,-6 -165,-28c-41,-15 -84,-35 -95,-44c-11,-9 -46,-34 -78,-54c-98,-64 -190,-162 -225,-242c-51,-115 -65,-206 -64,-406c2,-243 34,-375 135,-549c27,-47 61,-105 75,-130c47,-85 142,-209 222,-290c44,-44 80,-85 80,-91c0,-10 -40,-2 -50,10c-13,16 -114,41 -166,41c-102,-1 -163,-19 -241,-74c-24,-16 -45,-27 -47,-25c-8,9 -14,119 -6,114c19,-12 20,18 1,61c-14,31 -23,78 -27,142c-3,54 -10,120 -14,147c-12,65 -18,112 -25,210c-4,44 -15,132 -26,196c-11,64 -24,150 -29,190c-14,110 -35,207 -60,268c-20,52 -20,57 -5,97c16,42 16,43 -15,101c-18,34 -33,79 -34,104c-3,45 -22,90 -57,141c-11,14 -19,38 -19,52c0,31 -47,183 -59,191c-5,3 -9,20 -9,37c0,60 -79,211 -181,347c-48,64 -53,74 -38,82c25,14 21,41 -13,85c-16,21 -53,73 -83,114c-69,96 -177,198 -256,241c-52,28 -63,40 -71,70c-10,38 -39,55 -142,89c-21,6 -40,16 -44,21c-11,18 -129,56 -198,64c-23,3 -51,15 -65,29c-14,13 -38,26 -54,30c-35,8 -277,9 -309,1c-20,-5 -26,0 -41,29c-17,36 -17,36 -79,35c-35,-1 -76,-4 -93,-6zm-100,-133c-9,-15 18,-50 38,-50c21,0 55,17 75,37c7,7 33,13 57,13c43,0 65,-12 45,-25c-5,-3 -10,-15 -10,-27c0,-17 4,-19 25,-14c14,4 35,1 46,-5c21,-11 20,-12 -15,-48c-20,-20 -36,-41 -36,-46c0,-5 5,-4 12,3c18,18 38,14 38,-8c0,-29 39,-26 108,7c31,15 63,28 70,29c7,1 24,9 37,18c13,9 33,16 43,16c11,0 44,11 74,24c37,16 59,21 69,15c8,-5 37,-6 65,-3c33,4 60,2 75,-6c34,-18 79,-61 79,-77c0,-7 18,-22 40,-33c21,-11 44,-29 50,-39c5,-11 20,-23 32,-26c13,-4 40,-20 60,-36c20,-16 63,-38 95,-50c45,-17 74,-38 129,-94c47,-47 74,-84 79,-104c9,-43 2,-48 -31,-22c-15,11 -32,21 -38,21c-7,0 -43,16 -80,35c-38,19 -73,32 -78,29c-5,-3 28,-24 73,-47c118,-59 240,-178 226,-220c-4,-12 20,-78 32,-87c9,-8 51,-68 51,-75c0,-3 -11,2 -25,11c-22,14 -25,14 -25,1c0,-8 45,-57 99,-107c82,-76 100,-98 103,-126c3,-27 1,-34 -11,-33c-31,3 -32,-1 -12,-27c12,-15 21,-36 21,-47c0,-12 13,-35 29,-52c18,-19 37,-57 50,-101c27,-92 27,-103 -2,-76c-26,25 -46,30 -27,7c6,-8 9,-19 5,-25c-8,-14 -63,18 -70,41c-6,19 -32,32 -39,21c-2,-4 20,-37 50,-72c76,-92 115,-164 121,-224c3,-28 10,-58 16,-66c26,-33 35,-59 30,-80c-4,-13 0,-25 8,-31c11,-7 12,-12 2,-29c-18,-28 -17,-34 19,-69c26,-26 32,-39 31,-70c-1,-22 7,-56 17,-77c14,-27 17,-41 9,-50c-8,-9 -7,-30 1,-71c14,-69 58,-247 67,-270c5,-12 3,-14 -8,-7c-8,5 -36,9 -64,9c-27,1 -59,5 -70,9c-12,5 -5,-6 16,-25c20,-19 39,-42 43,-52c3,-9 16,-21 28,-26c29,-11 50,-35 75,-86c22,-43 36,-122 24,-130c-5,-2 -21,9 -36,25c-46,48 -56,36 -23,-26c17,-30 34,-81 38,-112c5,-31 16,-77 25,-101c13,-37 16,-85 16,-275c0,-282 -7,-393 -31,-516c-10,-52 -26,-142 -35,-200c-9,-58 -26,-127 -38,-155c-34,-83 -127,-216 -200,-288c-92,-90 -114,-101 -151,-74c-15,11 -16,18 -5,60c10,42 19,53 68,87c86,58 169,132 193,170c69,114 108,202 108,244c0,25 4,56 10,70c6,16 6,35 0,50c-5,13 -14,62 -20,108c-23,170 -69,255 -189,343c-91,68 -130,80 -256,79c-97,-1 -103,-2 -174,-40c-129,-68 -254,-229 -286,-368c-18,-77 -14,-134 16,-260c24,-101 60,-163 152,-261c57,-61 91,-88 145,-115c40,-20 71,-42 72,-50c0,-8 -11,-28 -24,-44l-23,-30l-72,13c-128,23 -259,78 -268,112c-6,21 -19,25 -25,8c-7,-21 -40,5 -62,50c-38,75 -57,183 -62,346c-4,151 -11,242 -39,565c-18,202 -27,266 -46,333c-12,42 -11,49 3,64c14,13 20,14 32,3c14,-10 16,-9 16,8c0,11 -7,28 -16,37c-20,20 -11,83 14,92c28,11 31,25 16,62c-14,32 -13,37 2,48c10,7 23,13 30,13c10,0 9,10 -2,45c-15,42 -15,46 5,71c14,18 18,34 15,53c-4,20 -1,30 10,34c12,5 18,-4 27,-36c19,-73 95,-157 142,-157c31,0 30,28 -2,67c-17,20 -26,40 -21,43c8,5 -32,71 -68,115c-17,20 -40,75 -32,75c5,0 12,-10 16,-22c8,-25 74,-111 81,-104c2,2 -7,21 -22,41c-22,33 -31,68 -22,93c1,4 10,6 21,4c13,-1 16,2 12,13c-6,17 9,21 19,5c3,-5 13,-10 21,-10c26,0 14,25 -27,54c-41,29 -48,47 -10,26c29,-15 27,-10 -15,36c-34,36 -35,39 -15,42c11,2 21,6 21,8c0,15 -23,44 -34,44c-8,0 -19,7 -26,15c-16,19 -3,19 30,0c32,-19 44,-19 36,0c-3,8 0,15 7,15c7,1 -4,10 -23,21c-29,17 -31,19 -10,15c14,-2 34,0 45,4c16,7 17,9 3,9c-26,1 -138,52 -138,63c0,6 8,7 18,3c9,-4 22,-8 27,-9c6,-1 16,-5 24,-10c17,-11 141,-24 141,-15c0,4 -13,12 -29,19c-16,6 -40,23 -52,36c-13,14 -51,40 -84,57c-48,26 -55,33 -37,35c13,2 30,-2 38,-9c8,-6 17,-9 20,-7c7,8 -46,48 -62,48c-8,0 -14,9 -14,20c0,13 -13,28 -34,41c-38,22 -51,52 -30,70c10,8 11,15 4,24c-8,10 -7,16 2,21c9,6 -4,12 -36,19c-58,13 -80,41 -25,33c19,-3 43,-2 54,3l20,8l-20,2c-11,1 -35,3 -53,5c-47,3 -51,12 -19,36c27,20 36,51 17,63c-17,11 0,25 60,52c50,21 79,47 67,59c-1,2 -31,-6 -66,-17c-61,-18 -65,-18 -83,-2c-16,14 -23,15 -38,5c-11,-7 -50,-12 -87,-12c-54,0 -65,3 -55,13c7,6 36,17 65,22c35,7 52,15 52,25c0,12 -18,15 -105,15c-95,0 -105,2 -102,18c2,9 -4,20 -12,23c-9,3 -14,10 -11,14c6,10 -36,20 -90,22c-22,0 -46,6 -54,12c-10,7 -16,6 -25,-6c-10,-13 -16,-14 -34,-4c-24,13 -20,29 4,19c8,-3 14,1 14,10c0,10 8,15 23,15c43,-3 132,5 110,9c-24,5 -31,27 -12,39c15,9 -8,24 -37,24c-12,0 -27,7 -34,15c-7,8 -22,15 -34,16c-20,0 -20,1 -1,8c11,5 23,7 27,5c4,-3 9,0 13,6c7,12 -35,30 -71,30c-29,0 -31,11 -5,27c10,6 21,21 24,32c5,20 1,21 -61,21c-51,0 -86,7 -148,31c-44,17 -91,40 -105,50l-24,19l37,0c71,0 127,22 149,57c12,19 18,41 14,52c-6,19 -8,19 -51,4c-52,-18 -62,-13 -40,19c19,27 21,58 4,58c-7,-1 -26,-11 -42,-24c-24,-20 -31,-22 -43,-11c-7,8 -13,21 -13,30c0,13 -6,16 -21,12c-21,-6 -21,-3 -16,47c5,52 5,53 -19,48c-16,-3 -26,-13 -29,-28c-3,-13 -8,-36 -11,-51l-6,-28l-21,39c-12,21 -32,50 -44,65c-19,21 -24,23 -32,12c-15,-23 -24,48 -19,151l4,92l-19,-45c-39,-87 -31,-238 11,-225c19,6 34,-13 47,-61c9,-33 -12,-37 -29,-6c-8,15 -37,49 -65,76c-28,26 -51,52 -51,58c0,8 -5,7 -15,-1c-13,-10 -17,-7 -30,23c-17,41 -20,77 -5,77c5,0 7,7 3,16c-5,14 -8,13 -18,-6c-7,-13 -10,-32 -7,-43c3,-13 1,-18 -6,-13c-21,13 -51,140 -56,240c-6,105 5,151 27,123c7,-8 26,-18 43,-21c26,-6 32,-3 42,19c7,14 12,33 12,41c0,8 15,30 33,49c17,19 38,41 46,50c9,12 16,14 24,6c17,-17 34,-13 69,18c46,40 163,74 143,41zm-92,-967c8,-16 17,-45 20,-65c5,-30 3,-36 -10,-31c-21,8 -10,-27 28,-90c35,-58 35,-61 4,-55c-30,6 -30,7 -5,-41c10,-21 16,-41 13,-45c-9,-8 -52,21 -81,55c-13,16 -32,29 -43,29c-10,0 -35,15 -55,33l-37,32l6,-32c10,-50 -5,-39 -35,25c-42,91 -43,99 -12,127c15,14 35,25 45,25c11,0 19,5 19,11c0,8 5,8 15,-1c12,-10 21,-7 50,19c44,38 60,39 78,4zm2966,-472c11,-11 28,-20 38,-19c10,0 38,-4 63,-9c36,-7 48,-15 60,-38c8,-17 30,-45 48,-63c31,-30 33,-35 27,-75c-4,-23 -13,-45 -19,-50c-11,-8 3,-22 78,-80c20,-15 36,-36 36,-45c0,-9 16,-34 35,-56c42,-46 43,-54 10,-66c-28,-11 -30,-28 -11,-82c8,-23 10,-40 4,-46c-6,-6 2,-18 21,-31c17,-13 31,-29 31,-37c0,-9 14,-27 30,-41c17,-13 30,-29 30,-34c0,-5 14,-38 30,-72c36,-76 39,-112 10,-120c-11,-3 -20,-12 -20,-21c0,-9 -6,-16 -14,-16c-8,0 -25,-20 -37,-45c-21,-42 -24,-44 -41,-29c-16,15 -18,15 -24,1c-9,-25 0,-62 15,-59c18,4 41,-30 72,-107c22,-53 24,-70 16,-97c-9,-30 -11,-31 -41,-22c-59,18 -61,17 -59,-34c1,-27 -1,-48 -4,-48c-3,0 -18,11 -35,25c-30,25 -48,32 -48,17c0,-4 5,-13 12,-20c9,-9 8,-12 -8,-12c-16,-1 -15,-3 9,-21c16,-13 27,-30 27,-45c0,-27 -3,-29 -30,-12c-16,10 -25,10 -47,-2c-42,-23 -89,-14 -113,21c-12,16 -26,29 -31,29c-19,0 -8,-28 21,-53c41,-37 40,-58 -2,-50c-51,9 -97,33 -103,54c-10,31 -35,23 -35,-11l0,-29l-34,20c-19,11 -37,26 -40,34c-6,17 -36,21 -36,5c0,-22 -29,-8 -71,33c-70,69 -88,95 -82,117c3,11 0,20 -6,20c-6,0 -11,-6 -11,-12c0,-7 -9,1 -21,17c-15,23 -19,40 -15,73l6,44l-33,-28c-31,-26 -32,-26 -35,-6c-2,11 1,38 7,58c14,51 8,53 -20,7l-24,-38l-3,48c-3,53 -13,60 -30,21c-7,-14 -16,-23 -21,-20c-5,3 -19,39 -31,78c-13,44 -30,80 -43,90c-22,17 -22,18 -5,65c12,33 14,49 6,54c-7,5 -2,23 17,56c17,29 22,43 12,34c-24,-19 -21,-5 9,48c27,46 27,46 3,25c-76,-68 -118,-43 -122,71c-1,52 12,83 43,102c17,9 30,22 30,29c0,6 9,19 20,29c39,35 9,42 -32,8c-16,-14 -38,-11 -38,5c0,4 11,19 25,34c29,31 31,38 10,38c-24,0 -17,21 18,58l32,33l-30,-7c-27,-6 -29,-6 -17,9c10,12 11,20 1,35c-17,28 -4,70 24,74c17,2 21,8 19,30c-4,33 15,46 36,24c11,-11 12,-16 4,-16c-7,0 -10,-5 -7,-10c4,-7 13,-7 26,0c11,6 17,15 14,19c-7,12 71,81 92,81c9,0 30,11 48,24c36,28 114,37 138,17c10,-8 17,-9 22,-1c3,5 15,10 26,10c11,0 22,7 25,15c9,22 70,19 93,-4zm-3254,-16c22,-7 66,-18 97,-25c32,-6 60,-16 63,-21c4,-5 1,-9 -4,-9c-6,0 -11,-7 -11,-16c0,-13 6,-15 33,-9c39,9 35,8 127,1c108,-9 110,-10 97,-52c-7,-25 -7,-38 0,-45c18,-18 33,0 33,38c0,35 0,36 20,18c19,-17 19,-18 0,-42c-13,-17 -17,-31 -11,-46c12,-32 -8,-96 -37,-115c-19,-12 -27,-13 -30,-4c-2,6 -10,12 -19,12c-12,0 -12,-2 1,-16c9,-8 16,-19 16,-24c0,-16 -41,3 -56,25c-10,16 -29,25 -59,30c-25,3 -47,10 -50,16c-4,5 -22,9 -40,9c-29,0 -36,-4 -41,-25c-4,-18 -13,-25 -30,-25c-13,0 -24,6 -24,13c0,26 -41,37 -151,39c-61,1 -113,6 -115,10c-3,4 -13,8 -23,8c-17,0 -75,39 -114,77c-9,9 -23,35 -29,56c-11,38 -11,40 19,66c17,14 33,35 35,46c2,13 14,22 33,26c47,9 226,-1 270,-16zm794,-208c22,-23 60,-73 85,-112c24,-38 54,-81 67,-94c83,-83 129,-124 129,-114c0,6 -8,17 -17,24c-31,26 -72,90 -66,105c10,25 22,15 60,-51c20,-36 41,-65 45,-65c5,0 3,-9 -4,-19c-9,-15 -8,-24 5,-45c9,-14 17,-43 17,-64c0,-67 35,-183 83,-277c25,-50 48,-100 52,-112c9,-33 -12,-37 -32,-6c-27,42 -96,108 -110,105c-11,-2 -25,23 -53,96c-19,50 -31,38 -14,-15c8,-27 20,-66 26,-88c8,-25 28,-54 56,-79c44,-39 44,-40 39,-92c-3,-30 0,-76 8,-106c18,-73 27,-168 16,-168c-5,0 -12,23 -16,50c-5,36 -17,64 -44,98c-20,26 -43,60 -51,76l-15,29l-5,-28c-5,-27 -10,-22 -99,90c-139,175 -184,215 -323,286c-66,33 -142,67 -169,75c-48,14 -60,26 -39,39c6,3 10,15 10,26c0,10 -4,19 -10,19c-16,0 -12,20 9,46c11,13 29,57 40,97c12,39 28,84 36,99c8,14 15,47 15,71c0,25 4,48 9,51c5,4 7,-20 4,-56c-8,-82 10,-70 38,25c12,40 23,74 25,76c2,2 10,-4 19,-13c9,-9 25,-16 35,-16c19,0 23,-8 35,-67c4,-18 11,-33 16,-33c17,0 9,41 -21,112c-17,40 -29,77 -26,84c8,22 91,-15 135,-59zm-739,-518c0,-8 11,-9 33,-4c17,4 41,7 51,7c30,-1 76,-23 73,-35c-1,-7 21,-11 58,-11c51,-1 60,-4 59,-19c-3,-28 51,-50 103,-43c50,7 78,-2 116,-37c15,-15 27,-22 27,-17c0,14 37,12 46,-2c4,-6 2,-14 -4,-16c-17,-5 -15,-42 2,-42c8,0 33,-10 56,-22c42,-23 42,-23 37,-70c-7,-58 10,-65 19,-8c10,59 33,53 26,-7l-5,-48l21,23c17,19 27,22 50,17c34,-7 67,-39 57,-54c-9,-15 -42,-14 -48,2c-9,20 -27,-13 -27,-49c0,-28 4,-32 35,-38c19,-4 41,-16 48,-27c8,-11 20,-19 27,-17c37,8 51,-93 25,-177c-8,-27 -12,-51 -10,-53c11,-11 35,10 35,31c0,13 6,32 14,43c12,15 17,17 27,7c10,-10 10,-16 1,-25c-8,-8 -9,-15 -1,-25c9,-9 7,-20 -5,-38c-10,-15 -14,-34 -11,-46c6,-19 8,-20 26,-3c15,14 21,14 34,4c20,-16 19,-46 -1,-54c-10,-4 -14,-15 -12,-33c2,-21 -3,-30 -19,-38c-29,-12 -29,-23 -1,-27c34,-5 34,-34 0,-52c-42,-22 -49,-46 -14,-46c21,0 36,-11 60,-42c35,-46 40,-69 17,-88c-20,-17 -19,-26 5,-50c11,-11 20,-27 20,-35c0,-8 7,-15 15,-15c17,0 30,-23 38,-67c6,-28 3,-34 -20,-45c-35,-17 -41,-38 -13,-45c16,-4 20,-11 16,-27c-30,-104 -31,-161 -2,-137c11,10 16,8 21,-9c4,-12 2,-27 -4,-33c-8,-8 -11,-6 -11,6c0,28 -19,19 -37,-18c-19,-39 -9,-60 14,-30c14,18 15,16 9,-32c-4,-32 -3,-53 3,-53c5,0 13,-14 16,-31c5,-24 3,-34 -8,-41c-12,-6 -16,-25 -16,-73c0,-36 2,-65 5,-65c2,0 10,15 17,33l14,32l15,-36c9,-20 19,-51 23,-70c4,-19 16,-55 26,-80c10,-26 16,-49 13,-52c-9,-8 15,-250 25,-260c13,-13 24,-3 27,26c1,12 3,25 3,29c1,4 8,5 16,2c10,-4 18,3 25,20c9,25 11,26 32,12c38,-25 209,-74 278,-80c164,-14 348,-95 416,-184c52,-66 96,-186 105,-282c21,-221 81,-410 162,-510c54,-66 99,-110 127,-125c71,-36 248,-85 420,-116c142,-25 317,-96 391,-158c40,-33 122,-190 139,-264c5,-24 10,-86 12,-138c2,-88 0,-99 -30,-163c-18,-38 -52,-94 -77,-125c-24,-31 -63,-80 -85,-109c-72,-92 -131,-112 -219,-72c-24,11 -50,20 -58,20c-8,0 -30,12 -48,26c-19,14 -42,24 -52,23c-30,-5 -75,26 -138,95c-50,56 -64,66 -84,61c-18,-5 -32,2 -57,26c-23,23 -34,28 -34,18c0,-9 9,-24 19,-33c24,-22 34,-56 16,-56c-13,0 -49,27 -105,77c-14,13 -33,23 -43,23c-11,0 -36,14 -57,30c-21,17 -45,30 -53,30c-8,0 -20,7 -27,15c-7,8 -19,15 -27,15c-8,0 -28,14 -45,30c-16,17 -34,30 -38,30c-5,0 -19,14 -32,30c-14,20 -28,28 -39,25c-20,-7 -87,42 -174,127c-33,32 -70,61 -82,64c-13,4 -23,10 -23,14c0,5 -27,41 -60,82c-56,68 -210,352 -210,387c0,7 -6,27 -14,44c-33,73 -102,357 -93,381c3,6 -6,54 -19,106c-13,52 -24,110 -24,128c0,17 -3,32 -6,32c-18,0 -44,-23 -44,-40c0,-10 -4,-22 -10,-25c-6,-3 -10,-15 -10,-25c0,-26 -19,-35 -26,-13c-3,10 -10,27 -15,38c-4,11 -10,38 -11,60c-2,22 -7,40 -13,40c-5,0 -11,-18 -13,-40c-4,-65 -32,-168 -51,-190c-100,-112 -214,-195 -269,-195c-11,0 -35,-6 -53,-14c-37,-15 -209,-29 -234,-20c-9,4 -15,18 -15,35c0,16 -7,46 -15,66c-8,19 -15,64 -15,99c0,113 -28,80 -45,-53c-5,-36 -2,-68 8,-100c8,-26 18,-93 21,-148c3,-55 13,-143 22,-195c21,-131 29,-246 16,-253c-6,-4 -8,-88 -4,-232c4,-200 3,-225 -11,-225c-23,0 -56,-48 -63,-92c-9,-54 -162,-284 -188,-281c-10,1 -33,-12 -50,-28c-17,-16 -36,-29 -43,-29c-6,0 -42,-18 -81,-40c-80,-46 -105,-48 -187,-15c-33,14 -75,25 -93,25c-43,0 -82,40 -82,85c0,18 -12,54 -26,81c-23,44 -27,66 -36,208c-5,87 -6,170 -2,185c11,37 12,91 2,391c-14,469 -20,516 -69,642c-11,26 -19,55 -19,66c0,10 -15,35 -33,56c-28,31 -36,35 -45,23c-8,-10 -9,-28 -3,-60l8,-47l-36,21c-56,32 -200,226 -229,309c-45,126 -54,190 -44,301c12,126 47,213 111,274l41,39l63,-61c34,-33 72,-64 84,-68c13,-3 41,-22 64,-41c22,-19 46,-35 52,-36c151,-20 507,-31 523,-15c4,4 22,7 39,7c21,0 40,9 56,26c13,14 38,34 55,44c19,12 42,43 61,82c66,136 77,174 105,372c10,71 16,90 31,94c12,3 16,10 12,22c-6,17 -3,17 45,-1l51,-19l-12,21c-6,12 -26,35 -45,51c-19,17 -34,36 -34,43c0,8 -9,17 -20,20c-11,4 -20,15 -20,26c0,11 -7,31 -16,44c-20,30 -15,31 36,5c22,-11 50,-20 62,-20c19,1 17,4 -17,24c-76,46 -115,76 -115,90c0,11 8,12 40,4c47,-12 65,-2 75,42c5,25 12,29 43,32l37,3l-38,17c-21,10 -61,20 -88,24c-73,10 -68,21 12,26c39,3 76,11 82,17c9,9 -3,10 -46,7c-31,-2 -57,0 -57,5c0,11 46,23 58,15c8,-4 92,29 92,37c0,1 -51,2 -112,2c-85,0 -112,3 -111,13c2,8 -10,12 -36,12c-22,0 -42,4 -45,9c-4,6 31,8 84,6c79,-2 91,0 88,14c-2,12 -18,17 -63,21c-36,3 -55,8 -47,13c6,5 12,17 12,29c0,19 -5,20 -97,18c-135,-3 -141,-2 -153,19c-9,18 -4,21 46,36c56,16 107,56 119,94c7,24 -9,35 -27,19c-25,-23 -57,-38 -83,-38c-29,0 -31,7 -8,32c17,19 16,19 -35,12c-42,-5 -52,-4 -50,7c2,11 -13,14 -77,12c-80,-3 -82,1 -13,27c19,6 26,14 22,25c-4,8 0,23 7,31c12,15 10,16 -26,10c-116,-18 -125,-18 -125,-8c0,6 29,20 64,31c68,21 171,69 164,77c-3,2 -27,-6 -54,-18c-77,-34 -163,-57 -170,-46c-3,5 -4,10 -3,12c18,12 69,56 65,56c-3,0 -26,-7 -52,-16c-59,-20 -72,-7 -34,33c17,18 30,34 30,37c0,3 -33,-14 -74,-38c-68,-40 -76,-43 -95,-29c-12,8 -21,20 -21,28c0,9 -6,12 -15,9c-21,-8 -30,39 -18,92c12,50 1,59 -17,14c-15,-35 -31,-30 -25,8c2,15 6,56 9,92l5,65l-19,-40c-10,-22 -19,-48 -19,-57c-2,-37 -17,-16 -36,50c-27,94 -24,127 18,197c37,59 135,167 172,188c37,21 195,33 195,16zm-285,-749c7,0 31,-31 53,-68c23,-38 48,-74 56,-82c9,-7 16,-21 16,-32c0,-16 -4,-18 -17,-12c-10,4 -40,9 -67,10c-72,4 -132,39 -151,89l-15,40l5,-35l5,-35l-21,25c-15,18 -19,32 -15,54c7,35 21,46 58,46c20,0 26,-4 22,-15c-4,-9 1,-18 10,-21c22,-9 32,2 18,19c-14,16 -4,30 16,22c7,-3 20,-5 27,-5zm3145,-241c7,-11 18,-18 25,-15c23,8 115,-45 121,-71c5,-17 11,-22 24,-18c12,4 25,-4 40,-22c19,-24 21,-36 17,-81c-5,-46 -4,-52 9,-41c11,9 14,7 14,-11c0,-14 8,-24 20,-27c27,-7 35,-45 17,-75c-19,-29 -19,-78 -1,-78c21,0 17,-23 -7,-43c-12,-11 -18,-25 -15,-35c3,-9 -4,-33 -16,-52l-23,-35l-3,28c-2,15 -9,27 -18,27c-10,0 -13,-7 -8,-25c7,-30 -18,-44 -42,-24c-13,11 -15,9 -13,-12c4,-40 0,-61 -10,-54c-5,3 -12,1 -16,-4c-3,-6 -12,-8 -20,-4c-9,3 -15,-1 -15,-11c0,-22 -9,-20 -37,6l-23,21l0,-34c0,-33 -26,-69 -50,-69c-6,0 -18,18 -27,41l-16,41l-12,-30c-7,-16 -17,-32 -23,-36c-12,-7 -81,16 -81,27c-1,8 -65,67 -74,67c-3,0 -7,-7 -9,-16c-3,-13 -6,-13 -22,-1c-20,15 -31,67 -14,67c7,0 5,7 -3,18c-41,51 -48,89 -24,132c20,36 19,40 -15,40c-35,0 -39,17 -14,76c15,35 15,39 -1,50c-20,15 -14,63 13,104c9,14 19,43 22,64c6,46 30,62 30,21c0,-34 17,-65 36,-65c8,0 12,5 9,10c-3,6 1,10 11,10c12,0 15,6 11,21c-13,48 49,129 98,129c22,0 27,-31 8,-46c-19,-14 -18,-15 35,-19c27,-2 33,1 38,21c3,13 13,24 21,24c9,0 13,6 9,15c-8,23 12,18 24,-6zm290,-5c76,-17 74,-14 86,-120c4,-37 2,-69 -4,-80c-9,-16 -12,-13 -27,21c-22,55 -83,141 -112,160c-21,14 -31,35 -17,35c3,0 36,-7 74,-16zm177,-32c14,-9 35,-136 26,-158c-3,-8 2,-23 11,-33c9,-10 26,-47 39,-82c29,-85 98,-167 147,-175c109,-18 226,-98 260,-179c9,-22 26,-80 39,-130c12,-49 28,-112 36,-140c7,-27 16,-86 20,-130c4,-44 12,-102 20,-130c7,-27 16,-89 19,-137c3,-48 10,-99 16,-113c10,-28 14,-47 25,-134c7,-51 119,-316 149,-351c8,-8 27,-39 43,-67c41,-74 230,-267 287,-295c25,-12 46,-29 46,-37c0,-9 -17,-51 -37,-93c-41,-85 -52,-91 -105,-60c-23,13 -32,14 -35,5c-6,-18 -16,-16 -43,7c-13,11 -31,20 -41,20c-10,0 -20,4 -23,9c-3,5 -22,12 -41,15c-23,5 -52,23 -78,48c-47,45 -78,61 -89,45c-10,-16 -122,22 -173,59c-16,11 -46,26 -66,33c-20,6 -45,21 -55,33c-19,20 -19,20 16,13c19,-4 45,-13 57,-21c12,-8 31,-14 42,-14c11,0 28,-9 38,-19c13,-14 37,-20 88,-24c39,-3 78,-9 88,-12c9,-4 17,-3 17,3c0,14 -63,52 -87,52c-31,0 -162,37 -177,49c-8,7 -38,12 -68,13c-66,0 -88,6 -88,22c0,23 -38,49 -65,44c-30,-6 -132,64 -127,88c2,9 -3,14 -11,12c-17,-4 -98,76 -144,144c-20,29 -42,58 -48,63c-7,6 -23,26 -36,45c-13,19 -35,48 -48,63c-14,16 -39,54 -57,85c-17,31 -52,93 -77,137c-26,44 -63,121 -82,170c-19,50 -51,110 -71,135c-19,24 -38,57 -41,71c-8,42 -50,74 -145,109c-49,18 -88,38 -88,43c0,6 -8,3 -17,-6c-17,-17 -15,-20 35,-67c28,-28 52,-53 52,-56c0,-10 -61,38 -67,52c-4,10 -22,13 -74,10c-38,-2 -70,0 -70,5c-1,5 -3,14 -4,19c-1,6 -3,22 -5,38c-1,15 -4,22 -6,15c-10,-24 -34,-1 -34,33c0,49 26,56 59,16c29,-36 46,-40 55,-16c5,12 2,15 -10,10c-21,-8 -44,11 -44,35c0,21 -12,24 -41,9c-17,-9 -19,-7 -19,17c0,41 19,103 32,103c6,0 8,11 4,28l-6,27l17,-24c38,-51 78,-82 149,-118c83,-40 99,-42 301,-25l102,9l57,47c32,26 69,54 84,62c14,9 35,30 47,47c21,33 59,199 49,216c-3,5 4,31 15,58c12,26 26,66 32,88c12,49 15,222 4,253c-9,23 -1,28 20,14zm-3547,-15c38,-11 48,-20 67,-58c22,-43 35,-141 20,-155c-3,-4 -20,-1 -36,6c-20,8 -61,10 -128,6c-54,-3 -105,-5 -113,-5c-19,0 -114,-3 -155,-4c-111,-4 -162,4 -202,30c-54,34 -70,68 -46,95c14,16 15,23 5,39c-12,18 -9,19 100,19c103,1 182,8 279,25c31,6 38,4 53,-20c15,-22 16,-29 5,-36c-7,-4 -10,-11 -6,-16c5,-4 11,-3 15,3c6,7 94,84 96,84c1,0 21,-6 46,-13zm316,-194c16,-26 22,-43 23,-75c1,-26 21,-22 22,5c0,21 1,21 9,2c7,-17 9,-17 9,-2c1,25 22,21 54,-12c22,-24 27,-38 27,-82c0,-35 6,-59 17,-71c21,-24 32,-23 26,2c-5,17 0,20 27,20c31,0 31,-1 28,-42c-2,-33 1,-44 14,-46c16,-3 22,-28 34,-132c4,-41 3,-50 -10,-50c-9,0 -16,-6 -16,-14c0,-8 -5,-16 -10,-18c-6,-2 -11,-56 -12,-136c-1,-88 -6,-139 -14,-150c-12,-16 -13,-16 -20,2c-5,12 -3,21 3,23c12,4 -1,56 -20,81c-15,19 -57,-24 -57,-59c0,-16 -7,-32 -15,-36c-8,-5 -17,-30 -20,-58c-4,-35 -13,-56 -30,-70c-13,-11 -26,-30 -30,-43c-7,-24 -40,-46 -55,-37c-13,8 -13,41 0,65c13,24 4,48 -22,55c-15,6 -18,12 -13,36c6,25 4,29 -14,29c-22,0 -41,-27 -34,-48c11,-30 -45,-122 -73,-122c-7,0 -17,8 -22,17c-9,16 -11,16 -36,0c-14,-9 -27,-17 -30,-17c-13,0 -13,35 -1,70c13,36 13,42 -1,47c-9,3 -27,-5 -42,-19c-15,-14 -34,-28 -42,-30c-22,-8 -50,10 -44,27c4,8 1,15 -5,15c-6,0 -11,-7 -11,-15c0,-8 -4,-15 -10,-15c-5,0 -10,6 -10,14c0,8 -5,18 -11,22c-8,5 -10,-1 -6,-18c8,-30 -26,-69 -44,-51c-14,14 -31,80 -32,118c0,16 -7,35 -16,42c-11,8 -16,26 -15,57c1,38 -2,46 -17,46c-11,0 -25,-14 -35,-35c-16,-34 -34,-47 -34,-24c0,6 15,41 32,77c31,63 82,125 123,148c12,6 16,16 12,27c-10,25 -31,21 -66,-15c-22,-22 -34,-29 -42,-21c-7,7 4,22 38,52c26,22 54,41 61,41c13,0 72,57 122,119c14,16 35,30 46,31c13,0 39,19 64,48c39,44 41,45 37,19c-6,-36 10,-45 23,-12c12,31 48,179 52,214c5,37 22,35 41,-4c26,-54 42,-47 37,17c-1,22 2,26 19,21c11,-3 28,-16 37,-30zm1732,-28c3,-3 -4,-15 -16,-28c-25,-27 -29,-67 -7,-67c8,0 15,8 15,19c0,21 46,71 66,71c7,0 24,-12 38,-26c21,-23 23,-31 14,-56c-14,-40 7,-64 21,-24c13,33 40,45 52,23c7,-12 16,-14 40,-7c42,12 62,3 55,-26c-4,-13 -1,-24 7,-27c9,-3 9,-9 0,-25c-11,-19 -9,-21 27,-27c42,-7 56,-33 44,-80c-5,-19 -13,-25 -34,-25c-16,0 -30,-7 -34,-15c-7,-18 -2,-19 23,-3c32,20 48,4 57,-59c16,-113 7,-193 -30,-247c-14,-22 -29,-57 -32,-78c-7,-39 -24,-62 -32,-40c-8,26 -23,11 -17,-18c6,-26 3,-31 -22,-42c-15,-7 -32,-18 -38,-25c-14,-17 -110,-28 -119,-14c-10,16 -37,13 -58,-6c-17,-15 -20,-15 -28,-3c-6,8 -10,23 -10,33c0,9 -5,17 -11,17c-6,0 -9,-12 -7,-26c4,-37 -20,-51 -58,-33c-38,18 -44,61 -15,100c24,33 27,49 7,49c-16,0 -46,-42 -46,-65c0,-13 -7,-10 -30,12c-48,45 -39,59 33,54c15,-1 27,3 27,8c0,14 -77,14 -85,1c-12,-19 -44,-10 -62,16c-13,21 -14,30 -4,45c6,11 9,24 6,29c-3,5 -1,18 4,28c7,13 7,22 -1,30c-6,6 -11,38 -13,71c-2,70 -16,91 -56,91c-19,0 -29,5 -29,15c0,25 33,85 47,85c7,0 13,5 13,11c0,7 -11,9 -30,6c-38,-8 -38,2 1,36c36,31 39,32 39,13c0,-9 7,-12 20,-9c24,6 26,21 5,37c-11,8 -13,19 -7,41c7,25 14,31 47,35c34,4 37,6 22,19c-13,10 -15,17 -6,27c15,18 34,18 49,-1c19,-23 27,-18 40,20c15,44 54,76 88,70c13,-2 27,-7 30,-10zm962,-1045c0,-8 9,-21 19,-27c15,-10 20,-9 25,2c13,35 39,7 50,-55c5,-28 4,-31 -4,-12c-10,24 -25,29 -36,11c-3,-6 11,-28 32,-50c34,-35 36,-39 16,-39c-15,0 -22,-6 -22,-20c0,-14 6,-19 20,-17c11,2 23,6 26,10c13,12 20,8 32,-18c15,-32 15,-48 2,-40c-5,3 -10,2 -10,-3c0,-5 9,-12 20,-15c20,-5 48,-57 57,-106c6,-38 31,-80 58,-97c14,-9 25,-26 25,-38c0,-11 9,-36 20,-54c21,-35 26,-67 10,-77c-5,-3 -7,-12 -4,-20c5,-12 -1,-14 -27,-9c-64,12 -120,43 -181,101c-78,75 -126,140 -177,241c-46,91 -64,153 -66,227c0,28 -5,68 -9,90c-7,33 -6,38 5,28c20,-19 31,-16 29,10c-3,35 -3,35 45,13c25,-12 45,-28 45,-36zm2373,-758c21,-6 46,-17 56,-26c10,-9 22,-16 28,-16c6,0 13,-9 16,-20c3,-12 14,-20 27,-20c13,0 24,-8 27,-20c3,-11 9,-20 14,-20c5,0 8,-3 7,-7c-5,-17 57,-111 84,-126c33,-19 36,-42 8,-72c-14,-14 -22,-40 -25,-76c-3,-30 -3,-48 1,-41c16,33 59,-3 69,-59c8,-44 -7,-58 -32,-29c-24,28 -33,25 -33,-10c0,-25 5,-31 28,-36c20,-4 32,-15 40,-36c14,-39 9,-48 -29,-48c-35,0 -36,-23 -2,-28c27,-4 36,-27 20,-52c-12,-21 -47,-28 -47,-10c0,6 -9,1 -21,-11c-19,-19 -19,-22 -5,-38c32,-35 6,-78 -46,-76c-16,0 -28,-3 -28,-7c0,-4 -7,-8 -15,-8c-13,0 -13,-3 -3,-20c18,-28 -4,-50 -32,-33c-16,11 -20,9 -25,-6c-3,-11 -3,-31 1,-45c5,-22 3,-26 -14,-26c-12,0 -23,9 -27,21c-5,16 -14,19 -38,17c-27,-3 -32,-8 -42,-44c-10,-42 -50,-94 -72,-94c-7,0 -13,-9 -13,-20c0,-13 -7,-20 -19,-20c-11,0 -23,-4 -26,-10c-8,-13 -52,-13 -60,-1c-3,5 -19,12 -35,16c-17,4 -30,13 -30,22c0,11 -8,14 -31,11c-24,-4 -35,1 -54,24c-13,15 -28,28 -34,28c-6,0 -11,4 -11,8c0,13 63,32 88,26c16,-5 22,-2 22,10c0,19 2,19 -80,1c-61,-13 -66,-13 -84,5c-16,16 -18,23 -9,43c10,22 9,23 -18,19c-22,-3 -29,0 -29,12c0,9 -11,21 -25,26c-18,7 -25,17 -25,35c0,18 -5,25 -19,25c-11,0 -21,6 -23,12c-6,18 20,41 37,34c18,-6 20,5 4,21c-17,17 -2,33 31,33c35,0 50,19 21,27c-23,6 -28,19 -9,25c6,2 8,10 4,16c-4,7 -16,10 -27,7c-14,-5 -22,1 -31,20c-10,22 -9,27 8,39c10,8 22,12 26,10c4,-2 9,0 12,5c3,5 -10,12 -29,15l-34,7l25,37l25,37l-20,16c-37,30 -23,104 28,147c12,9 12,15 3,24c-18,18 -15,24 22,48c19,11 38,31 42,43c11,37 35,59 51,46c8,-8 13,-8 13,-1c0,6 -6,12 -12,15c-10,3 -10,8 1,21c8,9 20,15 27,12c13,-5 44,45 44,70c0,16 70,54 99,54c11,0 23,4 26,10c3,5 28,8 56,6c27,-1 59,3 72,10c23,13 46,12 110,-4zm-4169,-236c9,-48 -2,-86 -25,-86c-12,0 -19,-7 -19,-20c0,-27 34,-26 54,1c8,12 19,18 24,15c6,-3 12,-1 14,6c9,26 28,-6 28,-48c0,-27 -4,-43 -10,-39c-5,3 -25,3 -44,-1c-37,-6 -51,-28 -40,-58c7,-19 24,-22 24,-3c0,14 39,41 48,33c3,-4 5,-26 3,-50c-1,-25 3,-47 9,-51c6,-3 8,-10 5,-15c-3,-4 2,-14 11,-21c14,-11 18,-10 30,6c17,22 19,72 3,77c-7,2 -8,20 -4,51c7,48 8,48 26,28c11,-11 19,-34 19,-51c0,-20 5,-30 15,-30c17,0 20,-25 5,-35c-6,-4 -8,-11 -4,-16c3,-5 10,-6 16,-3c7,4 8,-4 4,-22c-4,-16 -7,-50 -8,-76c-2,-51 -14,-62 -27,-26c-6,18 -9,13 -14,-26c-6,-41 -4,-50 18,-74c14,-15 25,-31 25,-37c0,-10 63,-65 74,-65c14,0 4,23 -16,39c-38,31 -69,171 -37,171c5,0 6,-7 3,-15c-4,-11 -2,-13 9,-10c17,7 67,-71 67,-105c0,-13 5,-20 12,-18c16,6 88,-86 88,-111c0,-11 7,-27 16,-35c8,-9 13,-20 9,-25c-3,-5 -1,-12 4,-15c15,-10 0,-49 -33,-84c-27,-29 -31,-30 -37,-15c-4,10 -1,28 7,40c20,32 17,43 -25,90c-40,45 -56,47 -41,7c6,-16 6,-33 -2,-49c-17,-37 4,-56 32,-30c11,10 20,13 20,7c0,-6 -13,-18 -28,-26c-16,-8 -34,-22 -41,-30c-18,-22 -31,-20 -31,4c0,11 -8,24 -17,27c-18,7 -29,15 -58,41c-12,10 -17,8 -31,-13c-13,-20 -24,-25 -60,-25c-24,0 -44,4 -44,9c0,5 -25,21 -55,36c-47,24 -54,31 -49,50c6,26 -9,40 -46,40c-20,0 -26,6 -28,29c-2,16 -11,40 -19,53c-11,17 -12,27 -5,36c8,10 2,26 -25,64c-33,48 -34,53 -20,73c10,15 13,30 8,44c-4,11 -6,55 -3,97l4,77l32,-3c38,-3 56,10 56,39c0,12 5,27 12,34c8,8 8,15 -1,26c-7,9 -10,24 -6,36c6,20 8,20 20,4c12,-17 15,-15 47,19c27,28 34,43 30,62c-2,14 0,25 6,25c5,0 13,-15 16,-34zm-1414,-31c19,-23 43,-205 30,-230c-6,-12 -8,-47 -5,-85c3,-36 8,-210 10,-387c4,-314 -1,-374 -25,-306c-6,15 -16,39 -23,52c-13,26 -12,172 1,544c4,104 5,191 2,194c-3,3 -6,39 -6,81c-1,43 -5,94 -9,115c-8,39 3,49 25,22zm1788,-70c-2,-22 -9,-31 -25,-33c-16,-2 -23,-10 -23,-26c0,-12 -4,-26 -9,-31c-5,-6 -6,-18 -2,-27c5,-16 9,-16 34,-3c15,7 27,10 27,4c0,-5 -4,-9 -10,-9c-18,0 -11,-46 10,-65c11,-10 17,-22 14,-26c-3,-5 0,-9 5,-9c6,0 11,-6 11,-13c0,-8 11,-20 25,-27c14,-7 23,-16 20,-18c-3,-3 0,-11 5,-18c6,-6 13,-22 15,-35c2,-12 14,-32 25,-44c11,-12 20,-28 20,-37c0,-18 34,-51 43,-42c4,4 4,18 0,32c-4,16 -2,23 4,19c14,-9 45,-105 38,-117c-3,-4 2,-15 10,-23c8,-9 15,-19 15,-24c0,-5 22,-33 49,-62c38,-41 55,-52 71,-48c22,6 83,-37 162,-115c38,-37 41,-43 23,-46c-11,-2 -24,-8 -29,-13c-6,-5 -22,1 -40,14c-17,12 -48,31 -69,42c-48,25 -80,59 -82,87c-1,12 -7,24 -15,26c-7,3 -10,0 -6,-7c26,-41 -103,54 -198,147c-104,102 -171,218 -196,342c-5,25 -14,65 -20,90c-37,148 -37,188 0,143c21,-27 40,-30 40,-7c0,9 10,24 23,34c21,18 22,18 30,-3c4,-12 7,-35 5,-52zm2307,-5c-4,-11 -2,-20 4,-20c6,0 11,5 11,11c0,5 4,8 9,5c5,-4 11,0 14,6c6,19 77,-17 79,-39c0,-10 2,-22 3,-28c2,-5 3,-16 4,-22c2,-23 31,-14 31,9c0,21 0,21 21,2c21,-19 22,-19 15,4c-4,12 -5,22 -1,22c20,0 95,-24 95,-30c0,-4 6,-8 13,-7c40,1 67,-5 81,-18c8,-8 21,-15 30,-15c8,0 24,-12 35,-26c16,-21 24,-24 35,-15c7,6 21,9 30,5c9,-3 23,-1 31,6c18,15 47,6 39,-14c-3,-9 6,-19 25,-27c17,-8 31,-18 31,-22c0,-5 5,-5 11,-1c6,3 9,15 6,25c-8,28 12,23 23,-6c9,-24 40,-36 40,-15c0,6 5,10 10,10c14,0 12,-22 -5,-44c-9,-11 -18,-15 -27,-10c-7,5 -17,9 -23,10c-5,1 -17,5 -25,8c-9,4 -28,-5 -44,-19c-16,-14 -34,-25 -39,-25c-5,0 -20,-11 -33,-26c-32,-34 -31,-77 1,-98c31,-20 32,-39 3,-68c-23,-23 -24,-25 -26,-70c-1,-16 -7,-28 -14,-28c-6,0 -22,-9 -34,-21c-19,-18 -28,-19 -65,-12c-38,8 -46,6 -61,-12c-16,-19 -17,-19 -36,-1c-12,10 -25,15 -30,12c-5,-3 -19,6 -30,19c-23,27 -37,31 -47,15c-10,-16 -24,-2 -18,19c3,11 -2,21 -11,24c-11,4 -16,1 -16,-11c0,-13 -4,-12 -20,8c-11,14 -20,19 -20,11c0,-11 -3,-11 -15,-1c-12,10 -15,9 -15,-4c0,-10 -4,-14 -10,-11c-5,3 -10,20 -10,36c0,21 -10,41 -31,61c-18,18 -28,37 -24,46c3,8 -3,20 -12,28c-15,11 -16,16 -6,33c10,16 9,22 -3,32c-28,23 -35,46 -19,63c12,12 14,20 5,36c-20,37 16,23 39,-15c11,-19 25,-35 31,-35c14,0 13,15 -3,28c-18,15 -22,102 -5,102c17,1 63,39 55,46c-3,3 -20,-2 -38,-11c-30,-16 -33,-16 -45,-1c-6,10 -18,14 -28,10c-13,-5 -16,0 -16,25c0,33 8,39 29,19c10,-11 11,-10 6,5c-7,17 0,47 10,47c4,0 3,-9 0,-20zm-2450,-850c3,-5 35,-9 70,-7c61,2 64,1 59,-18c-11,-35 -36,-54 -92,-72c-51,-16 -55,-16 -67,0c-7,9 -17,17 -24,17c-26,0 -23,32 5,60c32,31 40,34 49,20z"/>
        <path stroke="null" id="svg_37" d="m431497.51207,-314766.057742c-4,-6 -2,-17 5,-25c9,-11 3,-15 -37,-22l-48,-7l60,-6c33,-3 159,-7 280,-8c121,-1 264,-5 318,-8c66,-5 97,-3 97,4c0,17 -27,20 -180,20c-159,-1 -230,7 -230,26c0,8 14,11 43,10c23,-1 152,-5 287,-8c135,-4 263,-9 285,-13c22,-3 37,-3 34,1c-16,17 -139,26 -422,31c-172,3 -351,8 -399,10c-56,4 -89,2 -93,-5z"/>
        <path stroke="null" id="svg_36" d="m430459.51207,-315348.057742c-15,-11 -9,-13 35,-13c66,0 121,-37 139,-93c6,-20 16,-42 21,-49c24,-30 -200,-213 -261,-213c-46,0 -64,35 -63,120c1,62 7,83 41,155c2,6 -3,4 -12,-3c-26,-22 -57,-118 -57,-175c0,-88 33,-125 105,-117c28,3 104,58 202,145l45,39l-7,-150c-8,-148 -7,-150 16,-177l24,-28l32,23c18,13 35,29 38,36c3,7 -9,4 -25,-8c-17,-12 -37,-20 -44,-17c-21,8 -26,75 -12,182c7,55 12,116 11,135c-1,22 4,39 14,47c15,11 14,12 -1,13c-10,0 -24,13 -33,30c-50,97 -155,156 -208,118z"/>
        <path stroke="null" id="svg_35" d="m429434.51207,-315386.057742c-76,-34 -103,-59 -100,-89c4,-37 30,-33 42,7c12,42 67,72 145,79c45,4 60,2 79,-13l22,-19l-45,-60c-25,-33 -45,-65 -45,-72c0,-18 39,-40 85,-49c22,-3 51,-12 65,-20c14,-7 46,-20 73,-30c26,-9 47,-22 47,-28c0,-17 -27,-55 -74,-105c-37,-39 -38,-42 -16,-36c31,9 87,60 107,99c14,27 14,30 -14,56c-16,16 -66,42 -118,60c-123,44 -128,50 -83,97c19,21 40,47 46,58c35,67 -113,112 -216,65z"/>
        <path stroke="null" id="svg_34" d="m432045.51207,-315393.057742c-37,-25 -27,-33 36,-27c52,6 61,4 81,-16c18,-18 21,-30 17,-58c-8,-45 -43,-82 -77,-82c-31,0 -52,20 -74,73c-28,68 -56,59 -97,-33c-79,-175 -16,-380 118,-380c25,0 24,2 -17,23c-24,12 -58,39 -74,60c-30,38 -31,42 -31,140c0,77 5,115 20,154c23,60 37,66 55,23c20,-48 64,-90 94,-90c34,0 101,69 110,112c16,81 -93,149 -161,101z"/>
        <path stroke="null" id="svg_33" d="m428420.51207,-315463.057742c-50,-8 -30,-22 40,-29c90,-8 113,-26 119,-91c5,-49 3,-53 -37,-97c-25,-27 -37,-46 -28,-46c8,0 19,5 26,12c7,7 12,8 12,2c0,-17 -94,-101 -138,-124c-56,-28 -96,-20 -118,22c-13,25 -15,49 -10,117c4,55 2,79 -3,66c-14,-29 -13,-169 0,-199c8,-16 25,-28 55,-36c43,-12 43,-12 115,36c40,26 96,71 124,98c29,28 73,71 99,95c67,61 49,64 -20,2c-32,-28 -59,-49 -61,-48c-1,2 2,21 8,42c15,53 -1,103 -43,136c-30,23 -92,51 -107,48c-3,-1 -18,-4 -33,-6z"/>
        <path stroke="null" id="svg_32" d="m431015.51207,-315528.057742c-13,-16 -40,-133 -48,-213c-6,-50 -4,-63 9,-74c24,-20 56,12 56,56c0,23 5,35 18,39c43,14 179,87 201,109c8,8 -25,-6 -75,-30c-94,-47 -120,-53 -146,-32c-15,11 -15,17 0,74c12,44 13,66 6,73c-8,8 -14,7 -21,-2z"/>
        <path stroke="null" id="svg_31" d="m432837.51207,-316093.057742c-11,-3 -32,-18 -47,-34l-27,-29l3,-322c1,-222 6,-332 14,-353c6,-16 18,-55 27,-86c39,-148 131,-121 143,43c4,57 2,70 -17,94c-11,15 -21,32 -21,38c-1,29 -61,76 -98,76c-28,0 -32,24 -32,215c1,150 3,177 23,235c21,59 26,65 56,71c42,9 57,29 34,47c-17,12 -24,13 -58,5zm48,-634c18,-25 31,-67 43,-144c8,-46 -16,-109 -43,-113c-28,-4 -51,30 -59,91c-7,46 -6,47 20,47c14,0 26,5 26,10c0,6 -9,10 -19,10c-26,0 -51,37 -51,75c0,59 46,72 83,24z"/>
        <path stroke="null" id="svg_30" d="m431180.51207,-316564.057742c-8,-9 -35,-46 -60,-82c-55,-78 -97,-119 -200,-194c-106,-77 -113,-76 -103,22c11,101 12,168 2,178c-17,17 -25,-23 -32,-155c-6,-111 -4,-150 9,-206c10,-39 19,-80 22,-93c3,-13 10,-22 17,-19c12,4 13,44 1,109c-7,43 1,88 16,88c19,0 236,194 271,242l35,47l0,-197c-1,-207 6,-252 45,-272c16,-9 16,-6 -3,37c-19,42 -22,67 -22,188c0,100 5,158 17,203c26,98 19,145 -15,104z"/>
        <path stroke="null" id="svg_29" d="m427412.51207,-318346.057742c0,-21 -15,-27 -25,-10c-9,15 -35,12 -35,-5c0,-8 -12,-18 -27,-22l-28,-7l25,-7l25,-7l-27,-1c-15,-1 -31,-8 -36,-18c-5,-9 -16,-14 -24,-11c-7,3 -22,0 -33,-8c-10,-8 -27,-14 -37,-14c-10,0 -25,-12 -35,-26c-15,-23 -18,-24 -28,-10c-14,18 -35,3 -35,-26c0,-10 -7,-18 -15,-18c-8,0 -34,-9 -58,-19c-23,-10 -50,-21 -59,-25c-10,-3 -18,-13 -18,-21c0,-9 -4,-14 -9,-11c-5,3 -11,-4 -14,-15c-4,-15 -11,-19 -24,-15c-13,4 -21,-1 -28,-17c-6,-12 -19,-24 -30,-26c-11,-2 -30,-14 -42,-27c-12,-13 -28,-24 -36,-24c-8,0 -17,-9 -20,-19c-3,-14 -14,-19 -42,-19c-20,0 -42,-5 -48,-11c-8,-8 202,-11 769,-10c450,0 770,4 757,9c-15,6 -23,21 -28,49c-5,32 -11,41 -27,41c-18,0 -20,4 -13,46c6,40 4,46 -14,51c-11,3 -24,17 -30,32c-7,20 -10,21 -10,7c-1,-20 -16,-13 -16,7c0,7 -10,13 -22,15c-19,3 -23,10 -23,37c0,29 -4,34 -30,40c-17,4 -35,15 -40,26c-6,10 -17,19 -25,19c-8,0 -15,6 -15,14c0,17 -22,26 -61,26c-18,0 -28,4 -24,10c4,6 -16,9 -52,9c-64,-2 -82,-7 -62,-20c10,-6 5,-9 -14,-9c-21,0 -30,6 -34,20c-3,12 -13,20 -22,19c-9,-1 -18,-1 -21,0c-24,8 -108,7 -118,-1c-9,-8 -17,-6 -30,6c-24,21 -32,20 -32,-4z"/>
       </g>
      </g>
     </g>
    </g>
   </g>
  </g>
 </g>
</svg>