<?xml version="1.0" encoding="UTF-8" standalone="no" ?>
<!DOCTYPE svg PUBLIC "-//W3C//DTD SVG 1.1//EN" "http://www.w3.org/Graphics/SVG/1.1/DTD/svg11.dtd">
<svg xmlns="http://www.w3.org/2000/svg" xmlns:xlink="http://www.w3.org/1999/xlink" version="1.1" width="640" height="480" viewBox="0 0 640 480" xml:space="preserve">
<desc>Created with Fabric.js 3.6.6</desc>
<defs>
</defs>
<g transform="matrix(1.22 0 0 1 327.8 241.5)"  >
<g style=""   >
		<g transform="matrix(0.93 0 0 1.12 109.89 -2.87)"  >
<rect style="stroke: rgb(0,0,0); stroke-width: 1; stroke-dasharray: none; stroke-linecap: butt; stroke-dashoffset: 0; stroke-linejoin: miter; stroke-miterlimit: 4; fill: rgb(255,255,255); fill-rule: nonzero; opacity: 0;"  x="-192" y="-201" rx="0" ry="0" width="384" height="402" />
</g>
		<g transform="matrix(0.93 0 0 1.12 201.96 -2.87)"  >
<rect style="stroke: rgb(0,0,0); stroke-width: 0; stroke-dasharray: none; stroke-linecap: butt; stroke-dashoffset: 0; stroke-linejoin: miter; stroke-miterlimit: 4; fill: rgb(0,0,0); fill-rule: nonzero; opacity: 0; visibility: hidden;"  x="-290" y="-200" rx="0" ry="0" width="580" height="400" />
</g>
		<g transform="matrix(0.74 0 0 1.04 20.69 -5375.34)"  >
<rect style="stroke: rgb(0,0,0); stroke-width: 1; stroke-dasharray: none; stroke-linecap: butt; stroke-dashoffset: 0; stroke-linejoin: miter; stroke-miterlimit: 4; fill: rgb(255,255,255); fill-rule: nonzero; opacity: 0;"  x="-291" y="-201" rx="0" ry="0" width="582" height="402" />
</g>
		<g transform="matrix(0.74 0 0 1.04 20.69 -1.64)"  >
<rect style="stroke: rgb(0,0,0); stroke-width: 0; stroke-dasharray: none; stroke-linecap: butt; stroke-dashoffset: 0; stroke-linejoin: miter; stroke-miterlimit: 4; fill: rgb(0,0,0); fill-rule: nonzero; opacity: 1; visibility: hidden;"  x="-290" y="-200" rx="0" ry="0" width="580" height="400" />
</g>
		<g transform="matrix(0.04 0 0 -0.05 11.27 -313.31)"  >
<path style="stroke: rgb(0,0,0); stroke-width: 1; stroke-dasharray: none; stroke-linecap: butt; stroke-dashoffset: 0; stroke-linejoin: miter; stroke-miterlimit: 4; fill: rgb(0,0,0); fill-rule: nonzero; opacity: 1;"  transform=" translate(-412386.88, 274354.9)" d="m 407586.877476 -274354.402537 l 0 -440 l 27 2 c 16 1 31 9 35 18 c 6 16 15 19 108 37 c 25 4 61 16 80 26 c 66 35 71 37 90 31 c 11 -3 28 -1 40 5 c 13 7 20 7 20 0 c 0 -5 5 -10 11 -10 c 6 0 9 7 5 15 c -4 10 3 17 22 21 c 15 3 32 7 39 9 c 7 2 15 0 18 -5 c 4 -6 12 -5 19 3 c 9 7 10 14 4 18 c -5 4 14 7 42 8 c 29 0 59 6 66 12 c 8 6 14 8 14 3 c 0 -4 5 -3 12 4 c 16 16 36 15 54 -2 c 10 -10 10 -16 2 -18 c -6 -2 -9 -12 -5 -20 c 9 -24 62 -17 62 7 c 0 28 42 35 222 39 c 89 2 167 7 174 12 c 15 9 37 10 249 18 c 204 8 222 9 239 20 c 8 5 16 4 20 -3 c 6 -9 15 -8 37 4 c 16 8 54 15 85 15 c 31 0 59 3 63 7 c 13 13 119 30 160 26 c 23 -2 70 1 106 6 c 112 18 273 25 265 11 c -5 -8 -3 -11 6 -8 c 8 3 13 11 11 17 c -1 8 14 12 45 12 c 81 -1 291 29 359 50 c 21 6 41 5 63 -2 c 22 -8 58 -9 105 -4 c 89 10 211 17 252 16 c 19 0 34 5 37 13 c 4 9 26 14 72 15 c 36 1 81 7 98 14 c 18 8 55 14 82 15 c 31 2 54 8 61 17 c 12 16 91 14 150 -4 c 49 -14 201 -12 214 4 c 6 7 19 11 30 8 c 19 -5 194 19 278 38 c 24 5 69 12 100 15 c 32 4 62 10 69 16 c 6 5 78 9 160 10 c 84 0 153 4 160 10 c 7 6 19 8 27 5 c 8 -3 17 -3 20 0 c 6 7 18 8 171 17 c 55 3 100 6 100 7 c 0 8 131 18 267 21 c 82 2 118 7 118 15 c 0 7 16 11 43 10 c 24 0 47 2 53 6 c 6 3 45 7 87 9 c 42 2 77 6 77 10 c 0 4 18 6 40 6 c 26 0 48 6 61 18 c 15 13 22 15 31 6 c 14 -14 84 -16 92 -3 c 3 5 32 9 63 9 c 32 0 111 5 175 11 c 65 7 122 10 127 7 c 5 -4 22 -1 38 5 c 15 6 75 13 133 14 c 65 2 92 0 70 -5 c -21 -4 -27 -8 -14 -9 c 35 -2 84 11 78 20 c -3 5 2 9 11 9 c 10 0 13 -5 9 -12 c -6 -10 -4 -10 7 -2 c 8 6 31 10 52 9 c 20 -1 37 1 37 4 c 0 3 30 5 67 4 c 37 -1 72 2 78 7 c 7 6 25 6 46 -1 c 46 -13 247 -13 264 1 c 15 12 138 3 169 -12 c 13 -7 21 -6 27 3 c 6 10 39 14 126 16 c 65 0 135 4 156 8 c 27 6 37 4 37 -5 c 0 -9 12 -11 45 -7 c 28 4 53 2 64 -5 c 14 -8 45 -8 122 0 c 90 10 194 6 234 -9 c 6 -2 21 3 33 10 c 20 11 32 10 72 -3 c 63 -21 70 -20 70 4 c 0 11 -6 20 -14 20 c -8 0 -17 3 -19 8 c -3 4 5 7 18 7 c 13 0 21 -3 18 -7 c -2 -5 1 -8 7 -8 c 6 0 10 -8 8 -17 c -3 -15 4 -17 40 -15 c 32 3 47 -1 56 -13 c 11 -15 16 -15 69 3 c 31 11 57 16 57 11 c 0 -5 69 -9 164 -8 c 99 0 172 -3 183 -10 c 10 -6 14 -11 8 -11 c -5 -1 -1 -5 10 -10 c 17 -7 15 -9 -12 -9 c -49 -1 -47 -16 3 -19 c 34 -2 44 1 44 13 c 0 19 34 19 50 0 c 8 -10 31 -15 68 -15 c 31 0 69 -4 86 -9 c 81 -24 116 -28 116 -15 c 0 9 12 14 34 14 c 29 0 33 -3 29 -20 c -6 -24 26 -34 119 -34 c 38 -1 68 -5 69 -11 c 1 -5 0 -22 -1 -38 c -1 -18 4 -29 17 -33 c 10 -3 26 -10 36 -15 c 16 -9 17 3 17 171 l 0 180 l -4800 0 l -4800 0 l 0 -439 z" stroke-linecap="round" />
</g>
		<g transform="matrix(0.04 0 0 -0.05 -9.62 1.12)"  >
<path style="stroke: rgb(0,0,0); stroke-width: 1; stroke-dasharray: none; stroke-linecap: butt; stroke-dashoffset: 0; stroke-linejoin: miter; stroke-miterlimit: 4; fill: rgb(0,0,0); fill-rule: nonzero; opacity: 1;"  transform=" translate(-411858.6, 280682.33)" d="m 412036.877476 -277272.402537 c -56 -10 -241 -68 -295 -92 c -225 -100 -337 -189 -489 -391 c -58 -78 -114 -177 -188 -332 c -35 -74 -97 -272 -96 -309 c 0 -20 -5 -45 -10 -55 c -6 -11 -13 -41 -17 -67 c -4 -27 -25 -94 -47 -150 c -66 -171 -85 -234 -76 -251 c 5 -10 1 -38 -11 -78 c -11 -35 -26 -84 -32 -111 l -12 -47 l -22 24 c -12 13 -35 32 -51 42 c -16 11 -36 25 -46 33 c -38 32 -156 75 -228 83 c -225 25 -279 21 -405 -30 c -100 -41 -277 -163 -300 -207 c -9 -16 -24 -42 -33 -57 c -9 -15 -45 -73 -79 -130 c -34 -57 -73 -118 -87 -137 c -17 -23 -23 -38 -16 -46 c 5 -6 10 -80 11 -165 c 3 -148 4 -158 40 -264 c 21 -65 44 -115 54 -121 c 25 -14 85 -74 85 -84 c 0 -4 18 -16 40 -26 c 22 -10 40 -20 40 -22 c 0 -2 -7 -18 -16 -34 c -8 -17 -24 -75 -34 -128 c -11 -54 -24 -110 -30 -126 c -6 -15 -8 -35 -5 -44 c 6 -20 -57 -91 -102 -114 c -60 -32 -147 -150 -178 -242 c -20 -59 -34 -166 -39 -295 c -8 -188 -17 -282 -33 -340 c -28 -103 -198 -434 -287 -558 c -36 -51 -102 -103 -122 -95 c -7 2 -30 -8 -51 -25 c -59 -46 -93 -55 -144 -42 c -24 7 -54 21 -66 32 c -15 14 -30 19 -45 15 c -13 -4 -78 -2 -146 4 l -123 11 l -63 -32 c -77 -38 -121 -84 -212 -220 c -84 -126 -123 -217 -138 -320 c -20 -133 -19 -149 12 -248 c 17 -53 36 -116 43 -140 c 7 -24 28 -67 46 -95 c 18 -29 39 -67 45 -85 c 7 -17 16 -32 21 -32 c 4 0 25 -11 45 -25 c 20 -14 46 -25 57 -25 c 12 0 25 -4 30 -8 c 11 -10 129 -32 169 -32 c 14 0 26 -6 26 -12 c 0 -7 13 -27 28 -45 c 15 -18 35 -44 45 -57 c 17 -25 17 -25 170 -22 c 89 2 165 8 184 15 c 40 16 58 63 49 132 c -6 47 -6 49 26 68 c 43 25 117 84 183 144 c 49 44 55 47 109 47 c 53 0 58 -2 76 -32 c 11 -18 21 -37 23 -42 c 2 -5 16 -9 32 -8 c 27 0 53 3 152 18 c 27 4 36 13 54 52 c 33 74 40 102 28 124 c -9 17 -4 25 30 55 c 23 19 41 41 41 48 c 0 8 14 44 32 82 c 29 62 32 77 33 172 c 0 72 -3 105 -11 108 c -7 3 -17 18 -23 34 c -5 16 -30 58 -55 93 c -26 35 -46 67 -46 72 c 0 10 188 104 208 104 c 13 0 94 33 190 76 c 29 13 57 24 63 24 c 15 0 83 36 110 59 c 13 11 48 39 77 61 c 29 23 72 67 95 97 c 23 31 58 75 78 97 c 47 53 64 87 83 166 c 9 36 21 76 27 90 c 6 14 15 69 20 124 c 7 84 13 105 39 146 c 41 64 63 82 118 97 c 41 10 48 10 57 -4 c 6 -9 18 -25 28 -35 c 9 -10 17 -23 17 -30 c 0 -6 45 -55 100 -108 c 72 -70 100 -105 100 -122 c 0 -48 32 -145 81 -243 c 27 -55 49 -105 49 -110 c 0 -6 27 -46 60 -90 c 33 -44 60 -89 60 -99 c 0 -11 9 -49 19 -85 c 36 -120 53 -310 62 -651 c 4 -179 12 -347 18 -375 c 6 -27 12 -79 15 -115 c 2 -38 14 -90 29 -127 c 22 -54 25 -72 20 -141 c -5 -76 -5 -80 19 -96 c 13 -9 45 -16 70 -17 c 44 -2 48 -5 78 -50 c 17 -27 42 -57 54 -67 c 21 -16 24 -28 27 -100 c 2 -44 9 -86 16 -93 c 6 -6 61 -13 130 -16 l 119 -6 l 27 42 c 15 23 32 53 37 66 c 6 15 17 25 30 25 c 11 0 28 4 38 9 c 9 5 45 17 79 26 c 84 24 139 59 205 132 c 78 85 105 128 143 230 c 18 48 44 115 58 148 c 29 69 44 171 52 370 c 3 77 10 181 16 230 c 9 86 4 460 -7 497 c -7 22 7 28 156 68 c 63 18 133 40 155 50 c 22 10 53 22 69 26 c 15 4 58 35 94 71 c 36 35 67 61 70 59 c 2 -3 -1 -34 -7 -69 c -6 -35 -14 -112 -17 -172 c -3 -60 -10 -118 -16 -129 c -14 -26 -4 -166 21 -283 c 32 -150 136 -333 236 -419 c 32 -27 85 -74 117 -104 c 68 -65 241 -157 432 -230 l 71 -27 l 3 -64 c 4 -113 -1 -107 99 -102 c 130 6 128 5 153 70 c 13 32 24 59 25 61 c 1 1 43 -18 92 -43 c 50 -25 95 -45 101 -45 c 6 0 36 -11 66 -25 c 30 -14 62 -25 72 -25 c 9 0 37 -7 63 -15 c 48 -15 154 -41 231 -56 c 97 -19 92 -16 86 -57 c -8 -46 18 -102 56 -120 c 26 -12 96 -3 218 28 c 52 14 100 89 100 156 c 0 17 6 24 19 24 c 11 0 37 17 59 38 c 60 55 82 70 113 77 c 16 4 29 12 29 19 c 0 6 25 36 55 66 c 95 93 147 195 160 313 c 3 28 8 70 11 92 c 10 67 4 187 -12 250 c -22 85 -106 256 -161 323 c -60 74 -94 105 -173 156 c -153 99 -121 91 -345 92 c -226 0 -293 7 -416 39 c -97 26 -116 34 -143 64 c -11 12 -27 21 -36 21 c -10 0 -29 15 -43 32 c -13 18 -37 47 -52 63 c -50 56 -62 99 -124 462 c -31 179 -50 239 -76 249 c -8 3 -15 12 -15 20 c 0 15 -75 56 -165 89 c -33 12 -59 26 -58 31 c 12 74 14 104 4 104 c -6 0 -8 -6 -5 -14 c 3 -8 1 -17 -5 -21 c -7 -4 -11 4 -11 19 c 0 20 6 27 28 32 c 62 13 93 27 149 63 c 65 42 153 127 153 148 c 0 7 4 13 8 13 c 5 0 20 24 35 53 c 24 50 38 104 52 209 c 3 26 12 53 19 60 c 31 32 41 315 14 403 c -9 28 -25 71 -37 98 c -11 26 -18 47 -16 47 c 14 0 -72 112 -106 140 c -22 17 -44 42 -49 54 c -10 28 -87 66 -206 103 l -90 28 l -70 -16 c -114 -27 -198 -71 -274 -145 c -79 -76 -148 -172 -157 -217 c -3 -18 -11 -43 -18 -57 c -7 -15 -12 -88 -14 -181 l -2 -157 l 41 -106 c 22 -58 40 -119 40 -134 c 1 -15 13 -51 28 -79 c 33 -65 153 -209 207 -251 c 84 -65 85 -65 71 -119 c -15 -55 -7 -54 -144 -23 c -164 37 -281 77 -325 112 c -71 54 -94 82 -101 116 c -15 77 -19 92 -25 92 c -3 0 -5 28 -3 62 c 4 85 -24 412 -38 437 c -6 12 -7 21 -1 21 c 5 0 7 29 5 68 c -10 168 -63 433 -119 600 l -43 127 l 19 37 c 32 63 21 105 -54 203 c -41 53 -128 141 -138 138 c -4 -1 -33 22 -65 52 c -33 31 -71 62 -85 71 c -41 26 -59 76 -45 124 c 21 71 58 82 174 55 c 63 -15 63 -15 120 14 c 42 21 79 31 137 36 c 113 10 146 20 206 65 c 45 34 60 54 105 147 c 30 59 54 114 54 120 c 0 7 -11 20 -25 29 c -21 14 -46 16 -133 14 c -214 -6 -288 -4 -347 9 c -65 14 -115 31 -115 38 c 0 2 14 16 31 30 c 41 35 89 132 89 181 c 0 34 -8 47 -54 96 l -54 56 l -92 0 c -91 0 -92 0 -85 23 c 4 12 10 42 14 67 c 4 25 10 51 15 58 c 4 7 8 70 8 140 c 1 119 -1 131 -27 185 c -25 53 -67 104 -123 150 c -12 9 -25 17 -28 17 c -3 0 -19 9 -34 20 c -16 11 -58 32 -95 45 c -56 21 -81 25 -173 24 c -59 -1 -118 -4 -132 -6 z m 223 -77 c 41 -8 86 -21 99 -28 c 40 -23 114 -103 147 -162 c 35 -60 55 -158 38 -175 c -7 -7 -7 -23 1 -48 c 12 -44 8 -111 -7 -126 c -8 -8 -11 -5 -11 9 c 0 36 -38 132 -66 169 c -40 53 -41 35 0 -27 c 43 -66 55 -110 58 -220 c 2 -63 -1 -90 -11 -100 c -11 -11 -12 -7 -7 22 c 8 44 -10 144 -32 179 c -29 47 -73 101 -83 101 c -4 0 5 -26 21 -57 c 37 -71 55 -156 43 -203 c -8 -30 -13 -34 -43 -35 c -26 0 -35 5 -40 20 c -6 22 -40 65 -52 65 c -4 0 0 -12 8 -27 c 18 -35 20 -83 2 -65 c -20 20 -32 13 -14 -7 c 26 -28 14 -37 -54 -45 c -44 -5 -64 -12 -73 -27 c -12 -20 -42 -26 -51 -10 c -3 5 -15 11 -26 14 c -11 3 -18 1 -14 -4 c 7 -12 107 -59 126 -59 c 9 0 21 -6 27 -14 c 17 -20 -6 -35 -65 -40 c -73 -7 -92 0 -100 40 c -8 45 -24 44 -24 -2 c 0 -19 -4 -33 -9 -29 c -5 3 -16 -2 -24 -10 c -9 -8 -22 -15 -29 -15 c -11 0 -11 2 0 9 c 11 7 10 10 -3 15 c -27 10 -45 7 -39 -8 c 4 -11 -6 -11 -63 0 c -37 7 -70 11 -72 8 c -2 -2 1 -4 7 -4 c 7 0 12 -7 12 -15 c 0 -8 18 -27 40 -41 c 22 -15 37 -30 34 -35 c -3 -5 -32 -9 -65 -9 c -38 0 -58 -4 -54 -10 c 3 -5 47 -10 96 -10 c 95 0 112 -13 33 -25 c -25 -3 -43 -10 -39 -13 c 7 -7 12 -8 40 -11 c 8 0 15 -5 15 -10 c 0 -11 -84 -5 -88 6 c -10 29 -21 36 -35 24 c -12 -10 -17 -9 -24 2 c -5 9 -16 11 -33 7 l -25 -7 l 28 -12 c 16 -6 39 -11 53 -11 c 13 0 24 -5 24 -11 c 0 -12 -41 -10 -167 6 c -66 9 -51 -1 30 -18 c 99 -22 163 -28 189 -18 c 13 4 34 5 48 1 c 23 -6 20 -8 -25 -23 c -53 -18 -210 -25 -277 -12 c -24 4 -38 3 -38 -3 c 0 -5 19 -12 43 -16 c 56 -7 317 -16 294 -10 c -16 5 -15 8 7 25 c 14 11 31 19 38 17 c 22 -5 126 52 152 83 c 20 24 30 28 51 23 c 14 -3 25 -9 25 -13 c 0 -8 -85 -53 -132 -70 c -16 -6 -28 -14 -28 -19 c 0 -4 -39 -39 -86 -76 c -62 -50 -88 -65 -94 -56 c -6 9 -10 7 -14 -8 c -4 -11 -14 -23 -24 -26 c -34 -13 -62 -31 -62 -40 c 0 -4 10 -6 23 -3 c 18 5 15 -1 -15 -27 c -44 -38 -47 -52 -16 -62 c 21 -6 19 -9 -23 -45 c -24 -21 -51 -39 -59 -39 c -8 0 -50 -12 -92 -26 c -82 -27 -158 -75 -158 -99 c 0 -8 -7 -15 -15 -15 c -9 0 -20 -11 -25 -24 c -5 -13 -14 -27 -20 -31 c -5 -3 -20 -25 -31 -48 c -19 -36 -21 -52 -16 -124 c 7 -102 40 -195 83 -239 l 33 -32 l -24 -6 c -38 -10 -92 -69 -99 -111 c -14 -75 35 -140 128 -170 c 18 -5 17 -7 -10 -22 c -52 -28 -238 -52 -369 -47 c -98 4 -105 3 -115 -17 c -15 -28 3 -106 36 -150 c 52 -71 123 -95 304 -102 c 95 -4 138 -10 180 -26 c 75 -29 100 -43 100 -54 c 0 -5 -69 -77 -153 -161 c -85 -83 -171 -179 -192 -211 c -21 -33 -41 -62 -46 -65 c -12 -8 -25 -49 -33 -100 c -6 -40 -3 -52 29 -104 c 19 -33 43 -65 53 -72 c 15 -11 14 -15 -14 -51 c -32 -40 -104 -178 -104 -200 c 0 -7 -11 -37 -25 -68 c -13 -30 -31 -83 -41 -118 c -9 -34 -18 -68 -20 -75 c -4 -13 -64 44 -64 61 c 0 4 -6 7 -12 5 c -21 -5 -86 41 -94 65 c -4 11 -12 27 -19 34 c -7 7 -25 45 -40 85 c -14 40 -31 81 -36 91 c -6 10 -9 40 -8 67 c 2 27 -2 55 -8 62 c -15 18 -24 73 -43 251 c -13 127 -14 573 -1 612 c 6 17 19 93 30 171 c 11 77 25 153 31 168 c 5 15 10 39 10 53 c 0 15 7 35 16 45 c 13 13 14 21 5 31 c -8 11 -6 20 9 38 c 75 90 108 122 139 135 c 32 13 34 16 18 31 c -14 14 -14 19 -1 45 c 8 15 10 28 5 28 c -13 0 -31 -33 -31 -58 c 0 -10 -10 -27 -22 -38 c -19 -17 -21 -17 -15 -1 c 12 32 -3 17 -17 -18 c -8 -19 -20 -35 -26 -35 c -8 0 -8 6 0 21 c 8 15 8 24 0 34 c -8 10 -1 29 31 79 c 23 36 45 66 50 66 c 5 0 15 15 23 33 c 8 17 15 26 15 18 c 1 -11 6 -10 21 4 c 11 10 16 21 11 24 c -13 8 15 64 51 103 c 15 16 28 34 28 39 c 0 5 3 9 8 9 c 14 0 62 87 62 113 c 0 20 6 28 25 32 c 14 3 36 7 50 10 c 29 6 24 25 -6 25 c -11 0 -42 -12 -70 -26 c -28 -14 -54 -23 -57 -20 c -16 17 117 116 156 116 c 8 0 23 6 31 14 c 16 13 89 34 150 42 c 18 2 40 8 50 14 c 55 32 -190 -20 -262 -56 c -63 -32 -124 -79 -152 -117 c -18 -26 -32 -36 -43 -32 c -18 7 -33 -12 -25 -32 c 5 -12 7 -12 14 -2 c 4 8 11 10 15 6 c 4 -4 -10 -23 -32 -43 c -21 -20 -40 -32 -42 -26 c -2 6 -11 8 -20 5 c -10 -4 -6 4 11 22 c 30 33 33 45 15 63 c -9 9 -6 17 12 37 c 13 14 25 35 26 47 c 1 13 3 30 5 38 c 7 42 -2 90 -16 90 c -8 0 -15 4 -15 9 c 0 9 34 55 63 83 c 9 10 17 22 17 27 c 0 9 25 21 43 21 c 4 -1 15 6 24 15 c 8 9 28 19 44 22 c 16 3 32 10 35 14 c 3 5 14 9 25 9 c 10 0 19 5 19 11 c 0 11 -9 10 -75 -7 c -17 -4 -17 -2 5 17 c 24 21 30 62 11 82 c -5 4 -51 -35 -105 -87 c -93 -92 -96 -95 -96 -65 c 0 34 30 98 56 120 c 9 7 27 31 40 51 c 14 21 29 38 35 38 c 5 0 7 -5 3 -12 c -4 -7 -3 -8 5 -4 c 6 4 9 11 6 16 c -8 13 6 40 21 40 c 20 0 18 50 -3 65 c -14 11 -15 16 -5 28 c 14 16 13 38 -3 49 c -7 5 -6 14 3 28 c 19 31 16 52 -8 45 c -18 -6 -17 -1 10 42 c 16 26 35 59 42 73 c 6 14 21 35 32 47 c 10 13 21 35 22 50 c 2 17 17 40 38 59 c 20 17 36 36 36 43 c 0 41 187 234 263 272 c 27 13 53 31 58 40 c 11 21 188 109 220 109 c 13 0 36 6 51 14 c 25 13 93 30 158 40 c 58 8 133 5 203 -8 z m 548 -727 c 65 -70 18 -212 -76 -232 c -22 -4 -50 -9 -62 -11 c -13 -1 -26 -6 -30 -9 c -3 -4 -16 -7 -28 -7 c -11 0 -26 -5 -32 -11 c -6 -6 -44 -14 -83 -17 c -67 -4 -72 -3 -68 14 c 2 10 13 23 26 29 c 12 5 22 14 22 18 c 0 5 11 18 24 28 c 14 11 27 33 31 49 c 4 17 15 35 26 40 c 10 6 19 19 19 29 c 0 10 7 24 15 31 c 8 7 15 18 15 26 c 0 11 34 32 80 47 c 8 3 32 6 53 6 c 31 1 45 -5 68 -30 z m -407 -313 c -7 -30 18 -46 72 -46 c 34 0 36 -1 20 -13 c -16 -11 -17 -17 -7 -36 c 10 -19 19 -21 59 -19 c 40 3 47 0 44 -14 c -3 -21 -2 -21 32 -8 c 21 7 26 16 26 42 c 0 18 7 42 15 53 c 15 19 15 19 29 -1 c 8 -11 34 -30 58 -42 c 38 -19 63 -22 218 -25 c 139 -3 182 -7 208 -21 c 17 -9 32 -23 32 -31 c 0 -8 9 -19 21 -25 c 25 -14 19 -52 -13 -87 c -25 -27 -101 -58 -122 -50 c -8 3 -29 2 -47 -3 c -49 -14 -144 -11 -242 10 c -27 5 -77 9 -110 9 c -73 -1 -136 9 -156 25 c -8 6 -28 12 -45 13 c -92 7 -90 6 -98 57 c -4 27 -2 59 3 73 c 16 42 12 54 -15 43 c -21 -8 -25 -5 -32 23 c -4 18 -8 41 -9 52 c 0 11 -7 20 -15 20 c -10 0 -21 -22 -32 -65 c -29 -118 -21 -183 41 -315 c 44 -92 114 -185 141 -185 c 9 0 35 -19 57 -43 c 22 -24 44 -42 49 -40 c 6 2 21 -8 34 -22 c 13 -14 31 -25 39 -25 c 9 0 35 -18 59 -40 c 24 -22 64 -54 88 -72 c 24 -17 44 -34 44 -37 c 0 -4 19 -29 41 -56 c 23 -28 48 -65 56 -83 c 13 -31 8 -86 -7 -80 c -4 2 -44 53 -90 113 c -90 120 -187 225 -208 225 c -7 0 -27 15 -45 34 c -18 18 -50 42 -72 53 c -22 11 -53 27 -70 35 c -129 69 -205 107 -205 103 c 0 -2 -15 2 -32 10 c -63 26 -288 58 -370 52 c -43 -3 -78 -2 -78 2 c 0 5 9 16 19 25 c 14 13 28 16 55 11 c 33 -7 37 -5 49 21 c 17 39 60 104 70 104 c 12 0 8 -17 -8 -30 c -8 -7 -15 -19 -15 -26 c 0 -8 -4 -14 -9 -14 c -10 0 -25 -50 -17 -58 c 3 -2 9 3 13 14 c 16 41 109 171 163 226 c 31 32 53 61 48 64 c -14 9 -64 -33 -103 -86 c -39 -53 -45 -58 -45 -36 c 0 18 123 138 179 176 c 33 21 54 28 82 26 c 32 -3 39 0 39 15 c 0 20 17 26 78 28 c 40 1 42 0 36 -23 z m -642 -557 c 3 -8 21 -7 66 1 c 39 8 106 11 175 8 c 92 -4 125 -10 182 -33 c 75 -31 152 -74 230 -129 c 52 -38 76 -47 55 -21 c -25 30 2 30 28 0 c 15 -17 59 -56 97 -87 c 91 -73 173 -161 208 -224 c 15 -27 40 -70 56 -95 c 16 -25 34 -63 41 -85 c 6 -21 22 -60 35 -86 c 14 -25 33 -92 45 -148 c 11 -56 23 -107 27 -113 c 4 -7 8 -30 8 -52 c 1 -22 10 -92 19 -155 c 13 -80 17 -156 14 -250 c -1 -74 -2 -169 -1 -210 c 2 -67 41 -308 63 -385 c 5 -16 12 -67 15 -113 c 5 -60 12 -88 25 -100 c 30 -29 34 -88 10 -129 c -11 -19 -22 -53 -23 -74 c -1 -21 -5 -39 -8 -39 c -3 0 -4 -36 -1 -80 c 4 -62 1 -89 -12 -113 c -8 -18 -20 -51 -26 -74 c -8 -32 -16 -43 -29 -43 c -23 0 -41 -46 -40 -99 l 0 -36 l 13 35 c 6 19 17 34 23 33 c 18 -4 53 46 53 76 c 1 14 7 37 15 51 c 13 23 14 19 14 -60 c 1 -109 -17 -148 -104 -233 c -54 -54 -80 -71 -143 -95 c -121 -46 -185 -55 -261 -39 c -63 13 -95 37 -51 37 c 25 0 19 15 -9 23 c -13 3 -18 0 -15 -8 c 5 -12 -30 -28 -40 -17 c -3 3 -6 16 -6 28 c 0 25 -28 48 -73 58 c -28 7 -28 6 -11 -18 c 9 -14 17 -43 18 -63 l 1 -38 l -32 15 c -18 8 -33 22 -33 30 c -1 10 -3 11 -7 3 c -2 -7 -11 -13 -19 -13 c -15 0 50 -92 70 -99 c 15 -5 55 -50 71 -81 c 15 -30 36 -235 28 -288 c -2 -20 -6 -86 -7 -147 c -4 -210 -5 -212 -21 -191 c -8 10 -17 38 -21 62 c -3 24 -12 51 -19 61 c -13 17 -14 17 -21 0 c -3 -10 1 -50 11 -90 c 25 -102 32 -118 50 -111 c 11 5 15 -1 15 -26 c 0 -24 -4 -31 -15 -26 c -16 6 -21 -18 -16 -82 c 1 -22 -2 -31 -11 -30 c -15 3 -17 -57 -5 -137 l 8 -50 l -29 33 c -25 30 -29 32 -41 18 c -10 -11 -12 -32 -8 -66 c 6 -47 -3 -64 -19 -39 c -9 16 -24 -9 -24 -42 c 0 -15 -8 -37 -19 -50 c -10 -13 -21 -31 -24 -39 c -4 -13 -6 -12 -6 1 c -1 16 -45 32 -56 21 c -3 -3 -5 -29 -5 -57 c 0 -57 -32 -140 -43 -111 c -4 9 -11 16 -17 16 c -15 0 -12 -26 5 -40 c 26 -22 17 -47 -24 -68 l -40 -21 l -25 20 c -14 11 -26 15 -26 9 c 0 -6 7 -13 15 -16 c 15 -6 11 -24 -5 -24 c -13 0 -70 63 -70 78 c 0 7 -4 11 -10 7 c -5 -3 -8 -21 -6 -40 c 3 -42 -19 -48 -34 -10 c -5 14 -16 25 -24 25 c -8 0 -17 6 -20 13 c -3 9 -8 8 -18 -4 c -7 -9 -20 -14 -28 -11 c -8 2 4 -12 28 -33 c 38 -33 59 -67 30 -49 c -20 13 -49 12 -44 -1 c 2 -7 -4 -12 -17 -11 c -15 1 -22 8 -22 22 c -1 11 -11 31 -23 44 c -12 13 -24 32 -28 42 c -9 31 -24 20 -24 -19 l -1 -38 l -25 30 c -13 17 -29 47 -36 68 c -6 20 -17 37 -23 37 c -24 0 -44 36 -55 100 c -9 48 -10 137 -4 335 c 5 149 8 286 8 305 c -1 19 -3 97 -5 172 c -2 100 -7 139 -16 142 c -9 4 -13 33 -13 104 c 0 54 -4 102 -9 107 c -5 6 -19 55 -31 110 c -30 141 -53 205 -100 283 c -36 59 -41 63 -35 32 l 7 -35 l -34 33 c -19 17 -37 32 -41 32 c -11 0 11 -39 44 -79 c 25 -31 26 -34 10 -50 c -17 -17 -30 -6 -154 133 c -61 69 -148 288 -146 368 l 1 43 l 12 -50 c 7 -27 20 -63 30 -80 c 19 -34 20 -38 -11 87 c -15 59 -15 75 -4 120 c 7 29 22 68 33 87 c 22 39 18 71 -7 51 c -9 -7 -18 -11 -20 -8 c -9 9 119 308 131 308 c 3 0 35 -24 72 -53 c 74 -60 178 -115 286 -153 c 66 -23 80 -24 206 -19 c 153 6 218 13 226 26 c 3 5 17 9 31 9 c 24 0 44 13 125 83 c 18 15 37 27 42 27 c 11 0 66 60 66 73 c 0 5 10 22 21 39 c 15 20 23 50 27 96 c 2 37 8 72 12 77 c 11 14 34 240 27 268 c -3 12 -10 37 -16 55 c -9 32 -6 30 50 -30 c 33 -34 55 -53 49 -41 c -13 29 -13 40 2 25 c 13 -13 48 -16 48 -4 c -1 20 -41 47 -66 44 c -6 -1 -17 10 -24 25 c -8 16 -24 42 -36 58 c -11 17 -25 41 -29 55 l -7 25 l 26 -24 c 35 -33 45 -20 12 15 c -31 34 -90 143 -82 151 c 3 4 17 1 31 -5 c 35 -16 110 -15 124 1 c 15 19 3 28 -25 21 c -13 -4 -36 -3 -51 2 c -27 7 -27 8 12 13 c 26 4 40 11 40 21 c 0 11 -9 14 -35 12 c -19 -2 -63 6 -98 17 c -34 11 -68 18 -75 15 c -8 -3 -20 10 -30 30 c -9 19 -29 43 -44 53 c -15 10 -48 37 -72 61 c -42 41 -43 43 -25 57 c 17 12 20 12 28 -5 c 6 -13 21 -20 50 -22 c 33 -2 42 -7 44 -24 c 4 -29 92 -71 92 -44 c 0 6 -5 10 -11 10 c -15 0 -69 39 -69 50 c 0 4 18 15 40 24 c 22 9 40 23 40 31 c 0 18 -13 19 -48 2 c -26 -13 -78 -14 -90 -3 c -2 3 1 12 8 21 c 9 11 32 15 79 15 c 39 0 75 5 85 13 c 16 12 16 13 -1 29 c -15 13 -28 14 -73 7 c -107 -18 -160 -21 -172 -12 c -7 6 -38 13 -67 17 c -57 7 -201 68 -201 84 c 0 5 36 12 81 15 c 65 4 85 10 105 28 c 31 29 20 45 -13 19 c -14 -11 -35 -20 -47 -20 c -21 1 -21 1 -1 17 c 19 15 19 15 -10 7 c -32 -8 -60 -9 -140 -4 c -27 1 -60 -1 -71 -5 c -17 -5 -31 2 -62 29 c -25 23 -51 37 -73 39 c -29 3 -34 6 -31 27 c 1 12 -6 32 -15 43 c -13 14 -19 41 -22 101 l -4 81 l -13 -50 c -7 -27 -13 -68 -14 -90 l -1 -40 l -27 32 c -15 17 -38 65 -51 107 c -20 63 -23 88 -18 148 c 6 70 8 75 49 113 c 68 65 127 96 248 131 c 57 16 58 16 62 3 z m -718 -109 c -16 -21 -56 -74 -89 -118 c -33 -43 -68 -91 -79 -105 c -42 -60 -45 -63 -46 -47 c 0 40 56 174 91 216 c 6 8 20 14 30 14 c 10 0 25 13 34 30 c 9 18 23 30 35 30 c 11 0 25 10 31 22 c 9 16 14 19 17 10 c 2 -8 -9 -31 -24 -52 z m -555 -21 c 24 -10 49 -19 56 -19 c 7 0 18 -7 26 -16 c 11 -13 9 -14 -14 -9 c -17 5 -27 3 -27 -4 c 0 -6 6 -11 13 -11 c 20 0 86 -72 130 -143 c 10 -15 22 -64 28 -110 c 16 -121 17 -110 -23 -216 c -13 -35 -22 -18 -10 21 c 16 51 24 150 12 143 c -5 -3 -10 -15 -10 -26 c 0 -10 -4 -19 -10 -19 c -5 0 -10 -10 -10 -22 c 0 -33 -27 -130 -38 -137 c -15 -9 -24 -49 -13 -55 c 16 -10 -42 -135 -103 -221 c -60 -84 -84 -107 -131 -125 c -24 -9 -26 -9 -16 4 c 10 12 9 15 -6 14 c -10 0 -26 3 -35 7 c -25 10 -93 -64 -75 -82 c 10 -11 21 -9 56 8 c 45 22 70 17 36 -7 c -11 -8 -27 -20 -35 -27 c -37 -30 -109 -66 -115 -57 c -3 5 -21 10 -38 10 c -26 1 -29 2 -15 11 c 10 5 15 16 12 24 c -4 8 -1 15 5 15 c 6 0 11 7 11 15 c 0 21 -8 19 -47 -11 c -19 -14 -37 -23 -41 -19 c -4 3 4 15 18 25 c 23 18 23 20 5 20 c -27 0 -99 -42 -94 -55 c 2 -5 16 -9 31 -7 c 14 2 30 -2 34 -9 c 5 -9 0 -10 -18 -6 c -17 5 -30 2 -38 -8 c -22 -26 -36 -17 -37 24 c -1 24 4 44 13 51 c 24 20 16 30 -13 17 c -16 -6 -30 -14 -33 -18 c -3 -3 -19 -14 -37 -22 l -32 -17 l -11 34 c -6 19 -16 37 -23 39 c -7 3 7 13 31 23 c 23 9 42 21 42 26 c 0 12 -15 10 -60 -8 c -33 -14 -39 -20 -34 -38 c 3 -13 -1 -27 -9 -34 c -18 -15 -28 -4 -57 63 c -13 32 -19 40 -17 23 c 3 -21 0 -28 -12 -28 c -21 0 -44 73 -27 90 c 14 14 26 13 26 -4 c 0 -27 19 -27 26 -1 c 5 19 1 30 -12 40 c -18 13 -18 15 6 59 c 13 25 21 48 18 52 c -4 3 -14 -8 -23 -25 c -8 -17 -19 -31 -24 -31 c -5 0 -11 -9 -14 -20 c -8 -31 -27 -24 -27 10 c 0 34 32 77 70 93 l 25 11 l -24 4 c -15 2 -32 -5 -50 -22 c -58 -55 -65 -25 -20 79 c 16 39 33 91 36 117 c 6 47 5 48 -26 54 c -42 9 -43 45 -1 76 c 17 12 30 28 30 35 c 0 7 7 13 15 13 c 18 0 19 12 4 27 c -9 9 -8 16 4 28 c 9 8 20 15 24 14 c 18 -4 74 24 70 35 c -2 6 10 19 27 28 l 31 17 l -28 1 c -16 0 -27 5 -25 11 c 4 11 114 59 138 59 c 12 1 11 4 -4 15 c -17 13 -17 15 15 34 c 19 12 40 21 47 21 c 6 0 12 4 12 9 c 0 13 57 31 97 31 c 20 0 32 4 28 10 c -13 21 43 30 165 24 c 90 -4 137 -11 169 -25 z m 1030 -491 c 20 -12 44 -30 55 -40 c 10 -9 48 -29 85 -45 c 36 -15 75 -36 85 -45 c 11 -10 26 -18 33 -18 c 7 0 13 -4 13 -9 c 0 -24 -217 -23 -247 1 c -18 14 -86 48 -97 48 c -18 0 -46 33 -46 54 c 1 25 22 56 39 56 c 6 0 11 5 11 10 c 0 17 31 11 69 -12 z m 2492 -228 c 123 -39 297 -150 234 -150 c -21 0 -20 -3 34 -83 c 58 -86 81 -130 81 -155 c 0 -10 6 -24 13 -31 c 10 -11 9 -13 -5 -8 c -22 8 -22 4 -3 -61 c 9 -29 13 -57 10 -62 c -3 -5 0 -18 6 -29 c 10 -15 9 -24 -4 -45 c -9 -14 -17 -41 -17 -61 c 0 -24 -4 -35 -15 -35 c -8 0 -15 7 -15 15 c 0 8 -5 15 -11 15 c -7 0 -8 -6 -3 -17 c 17 -35 9 -126 -15 -180 c -13 -29 -28 -53 -34 -53 c -5 0 -20 -10 -32 -22 c -13 -13 -41 -36 -64 -53 c -22 -16 -40 -37 -41 -45 c 0 -13 -1 -13 -10 0 c -6 9 -10 10 -10 3 c 0 -20 21 -26 33 -9 c 7 10 17 12 25 7 c 16 -10 -5 -30 -39 -36 c -13 -3 -29 -12 -35 -20 c -13 -18 -64 -20 -64 -2 c -1 6 -9 2 -19 -10 c -11 -13 -27 -23 -35 -23 c -9 0 -19 -7 -22 -15 c -7 -18 -34 -20 -35 -2 c 0 10 -2 10 -6 0 c -7 -18 -33 -16 -33 2 c 0 8 -5 15 -11 15 c -5 0 -7 -4 -4 -10 c 3 -5 1 -10 -4 -10 c -6 0 -11 6 -11 13 c 0 6 -9 23 -20 37 c -15 20 -20 21 -20 8 c 0 -14 -4 -15 -29 -7 c -16 6 -37 21 -46 35 c -8 13 -20 24 -25 24 c -16 0 -106 97 -132 142 c -60 105 -79 145 -99 216 c -11 37 -10 45 2 53 c 8 5 9 9 2 9 c -18 0 -30 50 -28 114 c 3 49 7 63 27 78 c 12 9 18 18 11 18 c -9 0 -8 10 2 41 c 8 23 15 54 15 70 c 0 45 119 259 143 259 c 8 0 25 17 38 37 c 45 70 146 78 320 23 z m -2350 -37 c 17 -46 13 -135 -10 -204 c -30 -91 -35 -97 -59 -76 c -10 9 -23 17 -29 17 c -5 0 -25 8 -44 18 c -28 14 -61 17 -194 17 c -176 0 -238 14 -283 63 l -23 24 l 21 20 c 12 11 20 28 17 37 c -4 15 9 17 127 16 c 82 -1 157 4 201 14 c 39 8 88 15 110 16 c 52 1 83 12 114 41 c 33 31 39 30 52 -3 z m 183 -67 c 51 -32 55 -38 85 -123 c 18 -48 33 -100 33 -115 c 1 -16 5 -28 10 -28 c 17 0 11 85 -9 124 c -10 19 -11 32 -5 38 c 7 7 14 -4 22 -33 c 16 -64 18 -69 30 -69 c 18 0 23 29 9 63 c -15 39 -46 70 -59 62 c -6 -3 -10 -2 -10 4 c 0 5 6 11 13 14 c 9 3 9 11 0 35 c -6 18 -9 32 -7 32 c 3 0 24 -19 47 -42 c 33 -33 42 -49 43 -77 c 2 -137 3 -146 17 -126 c 13 17 14 17 20 -4 c 3 -12 4 -36 2 -54 c -11 -91 -19 -138 -31 -197 c -14 -66 -11 -91 5 -49 c 5 13 21 50 35 83 c 14 32 26 62 26 67 c 0 4 5 20 10 35 c 10 26 11 26 25 8 c 12 -17 17 -17 35 -6 c 28 17 32 13 33 -38 l 2 -42 l 42 5 c 36 4 42 1 47 -17 c 23 -87 -36 -555 -74 -583 c -9 -6 -27 -32 -40 -58 c -13 -25 -32 -51 -42 -56 c -10 -5 -27 -27 -38 -49 c -12 -24 -29 -41 -43 -44 c -77 -16 -94 -12 -62 14 c 20 17 12 24 -12 11 c -73 -42 -139 -51 -187 -26 c -40 21 -59 20 -51 -5 c 10 -32 -8 -24 -57 25 c -44 43 -78 58 -78 33 c 0 -6 -13 1 -29 16 c -17 16 -40 34 -53 40 c -13 6 -27 21 -33 34 c -6 13 -19 22 -33 22 c -22 0 -22 -1 -7 -36 c 21 -51 20 -67 -4 -55 c -10 6 -30 41 -44 78 c -26 72 -47 88 -64 51 c -10 -21 -11 -19 -18 25 c -4 28 -3 72 4 104 c 14 73 14 73 -9 73 c -23 0 -25 15 -5 50 c 19 33 19 59 0 66 c -20 8 -36 -11 -73 -86 c -30 -63 -45 -61 -19 3 c 28 66 181 247 209 247 c 8 0 35 28 59 62 c 24 34 65 85 90 113 c 104 113 169 248 169 350 c 0 39 4 65 10 65 c 6 0 35 -15 64 -34 z m -1239 -133 c -4 -131 -19 -283 -27 -283 c -4 0 -8 4 -8 8 c 0 29 -107 40 -205 21 c -27 -5 -75 -11 -105 -13 c -69 -4 -107 -22 -126 -58 c -8 -15 -32 -39 -54 -53 c -25 -16 -37 -30 -34 -39 c 3 -8 -1 -19 -8 -25 c -57 -47 -76 -60 -82 -54 c -11 12 -6 104 9 158 l 16 53 l 82 12 c 59 8 100 21 145 46 c 34 19 70 34 79 34 c 15 0 64 34 193 132 c 26 20 61 55 76 77 c 40 57 52 53 49 -16 z m -695 -281 c 0 -5 -7 -31 -15 -58 c -19 -64 -21 -274 -2 -274 c 7 0 17 10 22 22 c 6 12 16 24 23 26 c 11 3 12 -6 7 -44 c -4 -27 -11 -64 -17 -81 c -13 -44 -3 -144 20 -197 c 27 -60 132 -169 184 -191 c 24 -10 66 -28 93 -41 c 70 -33 214 -57 268 -44 c 23 6 74 13 113 16 c 62 5 72 4 78 -11 c 10 -26 2 -29 -75 -33 c -49 -3 -69 -8 -69 -18 c 0 -7 -10 -19 -22 -25 c -23 -12 -23 -12 -5 9 c 18 20 16 42 -4 42 c -5 0 -17 -9 -26 -20 c -10 -11 -25 -20 -33 -20 c -20 0 -50 -33 -76 -83 c -35 -69 -83 -105 -70 -52 c 5 18 2 25 -9 25 c -8 0 -15 -8 -15 -17 c -1 -10 -7 -29 -14 -42 l -13 -24 l -1 29 c 0 16 6 36 13 44 c 8 8 14 17 14 20 c 0 3 4 18 10 33 c 17 45 9 63 -22 51 c -15 -5 -19 -16 -37 -99 c -5 -22 -14 -62 -21 -89 c -10 -42 -9 -51 4 -61 c 32 -23 -21 -135 -119 -248 c -34 -40 -124 -165 -124 -173 c 0 -51 -186 -194 -359 -276 c -48 -22 -113 -53 -146 -68 c -33 -16 -87 -37 -120 -49 c -33 -11 -118 -47 -189 -80 c -70 -34 -134 -61 -141 -61 c -7 0 -15 -5 -17 -11 c -2 -6 -30 3 -68 23 c -61 31 -65 35 -65 68 c 0 26 4 34 15 32 c 8 -2 17 -8 21 -13 c 5 -8 62 16 119 51 c 8 5 27 11 41 14 c 15 3 37 15 50 25 c 24 19 24 20 4 34 c -16 12 -25 13 -56 2 c -33 -12 -22 2 97 119 c 74 74 134 138 134 144 c 0 6 10 26 23 44 c 12 19 32 54 44 78 c 12 25 47 99 79 165 c 32 66 61 122 66 123 c 4 2 8 14 8 27 c 0 12 7 25 15 29 c 9 3 14 18 14 38 c -1 18 8 72 20 119 c 11 48 21 96 21 107 c 0 12 4 23 9 26 c 5 3 7 23 6 43 c -3 25 2 44 13 56 c 13 15 14 20 3 26 c -16 10 -6 31 14 31 c 7 0 15 -7 17 -16 c 2 -13 8 -12 31 8 c 38 33 34 40 -18 32 c -46 -6 -65 8 -26 21 c 11 3 25 13 33 22 c 12 15 11 15 -9 5 c -12 -7 -26 -12 -32 -12 c -17 0 -13 28 7 40 c 12 8 13 13 5 16 c -22 9 -14 25 18 36 c 30 10 30 10 10 29 c -11 11 -25 19 -30 19 c -21 0 -21 21 0 70 c 17 41 25 49 40 45 c 11 -4 19 -2 19 4 c 0 6 25 27 55 46 c 30 19 59 44 65 55 c 16 29 -4 25 -34 -6 c -13 -15 -29 -23 -35 -19 c -8 4 5 20 34 43 c 42 35 44 38 26 52 c -13 11 -16 22 -11 40 c 3 14 2 42 -3 63 c -7 27 -6 42 2 50 c 6 6 11 21 11 34 c 0 13 7 39 14 58 c 14 32 19 35 55 35 c 23 0 41 -4 41 -8 z m 472 -95 c 88 -53 138 -100 138 -130 c 0 -14 4 -28 9 -31 c 4 -3 6 -28 3 -56 c -3 -39 -1 -54 11 -63 c 14 -11 14 -17 2 -52 c -19 -51 -19 -55 3 -55 c 13 0 23 -15 36 -50 c 10 -27 21 -50 25 -50 c 3 0 4 -29 3 -65 c -3 -61 -6 -67 -38 -91 c -19 -15 -45 -26 -59 -26 c -14 0 -28 -4 -31 -9 c -7 -11 -34 -12 -34 -1 c 0 5 10 14 23 19 c 20 9 18 11 -21 18 c -47 8 -67 -1 -39 -16 c 9 -6 15 -14 12 -20 c -11 -17 -51 -9 -74 15 c -13 13 -38 27 -57 31 c -19 3 -38 13 -41 20 c -3 8 -9 12 -14 9 c -11 -7 -110 87 -103 98 c 3 4 -6 12 -19 17 c -21 8 -26 19 -32 68 c -11 83 -14 243 -5 248 c 4 3 11 21 14 40 c 5 25 17 42 41 58 c 19 12 35 29 35 37 c 1 19 96 69 131 69 c 15 1 51 -14 81 -32 z m 3136 -788 c 62 -21 152 -44 200 -50 c 75 -10 150 -26 263 -57 c 15 -4 57 -35 93 -69 c 50 -46 66 -68 66 -88 c 0 -15 11 -40 24 -55 c 22 -27 43 -110 32 -128 c -6 -9 23 -133 44 -192 c 7 -19 28 -75 46 -125 c 18 -49 36 -101 39 -115 c 13 -45 75 -127 143 -192 c 59 -55 78 -67 155 -92 c 76 -25 96 -28 161 -23 c 41 4 94 12 118 18 c 34 9 71 8 181 -5 c 75 -9 154 -24 175 -32 c 76 -33 124 -60 144 -81 c 12 -13 31 -23 43 -23 c 27 0 86 -56 120 -115 c 23 -38 28 -58 26 -104 c -1 -32 6 -77 15 -102 c 8 -24 17 -53 19 -64 c 10 -56 25 -180 25 -208 l -1 -32 l -14 25 c -8 14 -14 33 -15 43 c 0 20 -11 22 -29 5 c -11 -10 -14 -10 -18 0 c -6 16 -34 15 -60 -3 c -20 -14 -22 -13 -28 15 c -10 47 -29 50 -21 4 c 11 -58 62 -88 73 -44 c 3 11 8 20 12 20 c 11 0 52 -59 56 -81 c 2 -10 6 -23 10 -28 c 3 -5 1 -12 -5 -16 c -7 -4 -7 -12 0 -25 c 11 -20 -2 -70 -19 -70 c -11 0 -41 90 -41 124 c 0 14 -4 28 -10 31 c -6 4 -10 -11 -10 -39 c 0 -35 -6 -51 -25 -70 c -14 -14 -25 -34 -25 -45 c 0 -11 -6 -22 -12 -24 c -10 -4 -10 -6 0 -6 c 7 -1 15 6 18 14 c 4 8 10 13 15 10 c 4 -3 6 -12 3 -19 c -3 -8 0 -17 6 -21 c 7 -4 14 2 17 14 c 8 30 20 26 27 -11 c 4 -20 1 -37 -7 -47 c -8 -9 -17 -24 -20 -33 c -4 -11 -17 -18 -33 -18 c -22 0 -25 -2 -14 -15 c 10 -13 9 -15 -9 -15 c -14 0 -21 -6 -21 -20 c 0 -11 -5 -20 -11 -20 c -6 0 -33 -11 -59 -24 c -32 -16 -51 -21 -58 -14 c -5 5 -20 8 -33 6 c -31 -4 -38 -37 -10 -45 c 12 -3 21 -9 21 -14 c 0 -17 -44 -27 -63 -15 c -14 9 -20 8 -28 -6 c -11 -20 -95 -48 -131 -44 c -40 5 -55 21 -50 55 c 5 33 -5 38 -81 45 c -20 2 -46 11 -55 20 c -22 19 -39 21 -45 4 c -3 -10 -9 -10 -30 1 c -14 7 -36 11 -50 7 c -15 -3 -45 2 -76 16 c -48 19 -84 18 -51 -2 c 8 -5 12 -12 9 -15 c -8 -7 -85 26 -138 60 c -23 14 -46 23 -51 20 c -24 -15 -188 67 -253 127 c -32 29 -65 50 -92 57 c -23 6 -53 20 -67 31 c -15 11 -30 20 -35 20 c -5 0 -24 14 -42 32 c -27 27 -30 33 -17 40 c 9 5 21 6 28 2 c 19 -12 -24 41 -50 60 c -22 17 -24 17 -36 0 c -9 -12 -15 -14 -20 -6 c -4 7 -4 17 -1 23 c 7 10 -33 49 -151 154 c -25 22 -54 57 -64 78 c -10 22 -20 33 -22 26 c -2 -7 -12 4 -21 23 c -9 19 -23 41 -31 47 c -8 7 -17 23 -20 36 c -4 14 -12 25 -19 25 c -20 0 -55 87 -62 158 c -7 64 -18 85 -30 54 c -6 -16 -7 -16 -16 -1 c -5 9 -16 48 -24 85 c -9 38 -19 78 -22 89 c -5 17 -4 18 10 7 c 24 -20 30 2 17 59 c -9 37 -9 61 -1 94 c 8 32 8 65 1 117 c -13 86 -16 118 -25 230 c -9 107 -22 158 -41 158 c -22 0 -29 -28 -15 -66 c 11 -31 24 -234 15 -234 c -2 0 -22 18 -44 40 c -22 22 -46 40 -54 40 c -19 0 -25 32 -21 115 c 3 76 -4 149 -13 140 c -4 -3 -5 -25 -3 -48 l 3 -42 l -21 19 c -17 16 -20 27 -16 55 c 12 72 14 160 5 166 c -6 4 -10 1 -10 -6 c 0 -7 -3 -10 -6 -6 c -3 3 0 31 7 61 c 11 51 18 61 42 57 c 10 -2 9 26 -5 72 c -10 34 -10 41 4 51 c 8 6 19 35 23 63 l 7 52 l 76 -36 c 43 -19 128 -53 190 -74 z m -3015 -221 c -5 -7 -15 -32 -23 -56 c -14 -44 -40 -77 -40 -50 c 0 8 5 19 11 25 c 6 6 9 18 7 27 c -2 11 -10 5 -28 -21 c -17 -25 -21 -38 -12 -41 c 6 -2 10 -8 7 -12 c -3 -5 -1 -11 5 -15 c 5 -3 10 0 10 7 c 1 26 30 -26 30 -53 c 0 -78 -73 -280 -113 -314 c -17 -14 -90 -105 -110 -137 c -9 -15 -33 -32 -54 -38 c -37 -12 -57 -23 -178 -99 c -33 -21 -86 -48 -118 -59 c -32 -12 -68 -28 -80 -36 c -12 -7 -60 -26 -107 -41 c -78 -26 -138 -53 -166 -76 c -14 -11 -106 31 -101 46 c 2 6 46 24 98 41 c 96 31 144 57 284 153 c 83 57 259 227 250 242 c -3 4 5 15 19 24 c 14 9 28 30 31 46 c 4 16 21 47 38 68 c 32 40 99 141 128 194 c 24 45 81 100 89 86 c 5 -7 21 7 45 37 c 34 45 74 78 84 68 c 2 -2 0 -9 -6 -16 z m 2739 -746 c -14 -47 -15 -89 -3 -97 c 6 -3 13 22 17 57 l 8 63 l 8 -60 c 4 -33 12 -71 17 -85 c 5 -14 16 -52 26 -85 c 10 -33 21 -68 26 -77 c 5 -10 9 -26 9 -37 c 0 -11 7 -27 16 -35 c 8 -9 31 -51 51 -93 c 54 -118 175 -291 304 -436 c 25 -29 56 -68 69 -87 c 37 -55 110 -132 159 -168 c 25 -18 49 -39 54 -47 c 16 -30 -55 8 -96 51 c -23 23 -54 48 -69 53 c -16 6 -28 17 -28 24 c 0 7 -22 24 -50 36 c -27 12 -50 26 -50 31 c 0 17 -122 110 -144 110 c -13 0 -27 9 -32 19 c -5 11 -35 47 -68 81 c -42 43 -68 83 -92 138 c -19 42 -34 83 -34 89 c 0 7 -13 19 -30 28 c -29 15 -30 15 -36 -12 c -4 -14 -2 -39 4 -55 c 5 -15 7 -28 2 -28 c -4 0 -22 38 -39 85 c -18 46 -36 87 -40 89 c -14 9 -4 347 13 421 c 9 39 16 74 16 80 c 0 5 5 4 12 -3 c 9 -9 9 -21 0 -50 z m -3823 -301 c 2 -1 -7 -10 -20 -22 l -24 -20 l 28 6 c 19 4 37 -1 57 -15 c 36 -25 50 -25 50 0 c 0 11 -4 20 -9 20 c -5 0 -11 7 -15 15 c -8 22 0 18 28 -12 c 21 -23 23 -29 11 -47 c -20 -32 -2 -70 30 -64 c 20 4 25 1 25 -16 c 0 -12 6 -30 14 -41 c 7 -11 15 -33 18 -48 c 6 -32 -34 -212 -56 -255 c -22 -43 -92 -102 -121 -102 c -14 0 -25 -4 -25 -10 c 0 -5 -7 -10 -15 -10 c -9 0 -57 -14 -107 -30 c -50 -17 -93 -28 -96 -25 c -13 12 30 42 53 37 c 14 -2 32 1 41 8 c 13 12 11 15 -15 26 c -16 7 -38 10 -48 8 c -13 -4 -19 1 -20 15 c -2 18 15 41 27 38 c 3 -1 21 11 40 26 c 31 25 32 28 10 21 c -14 -4 -30 -9 -37 -11 c -7 -3 -17 13 -24 39 c -7 24 -18 50 -25 58 c -16 19 -8 58 19 87 c 17 19 18 25 6 39 c -8 9 -12 27 -11 40 c 3 18 -1 24 -16 24 c -39 0 -32 28 14 55 c 32 19 44 32 44 49 c 0 15 7 26 20 29 c 11 3 20 11 20 17 c 0 8 -6 9 -17 5 c -10 -4 -29 -10 -41 -13 c -20 -4 -23 -1 -20 19 c 2 17 11 25 33 29 c 17 4 44 14 60 23 c 25 13 62 16 114 8 z m -676 -103 c 12 -6 29 -15 37 -19 c 8 -5 38 -21 65 -35 c 43 -23 165 -111 165 -120 c 0 -14 -15 -34 -26 -34 c -21 0 -17 -47 7 -89 c 12 -20 41 -65 64 -101 c 24 -36 46 -75 50 -88 c 5 -19 2 -23 -25 -28 c -41 -9 -73 -49 -59 -75 c 15 -29 4 -38 -40 -32 c -29 4 -39 1 -44 -11 c -5 -13 1 -20 23 -28 c 41 -14 38 -25 -12 -38 c -24 -6 -49 -13 -57 -16 c -7 -2 -19 0 -25 5 c -12 10 -56 4 -56 -8 c 1 -22 20 -33 49 -28 c 18 4 31 2 31 -3 c 0 -16 -47 -30 -101 -30 c -45 0 -66 -13 -37 -22 c 7 -3 -5 -5 -27 -6 c -36 -1 -38 0 -22 12 c 20 15 16 20 -25 30 c -16 3 -28 11 -28 17 c 0 6 -4 7 -10 4 c -19 -12 -11 -43 13 -49 c 12 -3 -5 -3 -38 0 c -33 3 -68 5 -77 5 c -10 0 -18 4 -18 10 c 0 5 -13 9 -29 9 c -21 0 -30 6 -34 21 c -5 17 -11 20 -35 14 c -24 -5 -35 -1 -51 16 c -16 18 -31 22 -61 21 c -44 -3 -47 2 -26 43 c 24 45 6 67 -36 44 c -28 -15 -42 1 -40 51 c 1 28 -3 42 -13 46 c -22 9 -19 67 5 106 c 14 23 18 43 14 64 c -4 20 0 43 10 62 c 9 17 16 40 16 51 c 0 12 9 26 20 33 c 11 7 20 18 20 25 c 0 14 44 81 69 104 c 29 27 168 38 341 26 c 29 -2 36 2 38 20 c 2 14 -3 23 -15 26 c -10 3 -12 5 -5 6 c 7 0 22 -4 35 -11 z m 2737 -572 c -3 -248 -4 -240 15 -232 c 13 4 15 -8 15 -79 c 0 -92 -13 -111 -30 -42 c -5 23 -14 54 -19 69 c -5 16 -6 30 -1 33 c 7 5 3 48 -8 75 c -13 34 -14 44 -13 200 c 1 61 5 99 10 92 c 13 -22 22 13 14 60 c -4 31 -3 39 6 33 c 9 -5 12 -58 11 -209 z" stroke-linecap="round" />
</g>
		<g transform="matrix(0.04 0 0 -0.05 -129.53 260.9)"  >
<path style="stroke: rgb(0,0,0); stroke-width: 1; stroke-dasharray: none; stroke-linecap: butt; stroke-dashoffset: 0; stroke-linejoin: miter; stroke-miterlimit: 4; fill: rgb(0,0,0); fill-rule: nonzero; opacity: 1;"  transform=" translate(-408866.88, 285970.4)" d="m 407587.877476 -285967.402537 l -1 -748 l 1160 0 l 1160 0 l 1 23 l 0 22 l 11 -22 c 10 -22 17 -23 120 -23 l 108 0 l 0 29 c 0 27 -3 29 -45 33 c -31 2 -46 -1 -50 -10 c -8 -22 -27 -8 -39 28 l -11 35 l -87 3 l -88 3 l 0 33 c 0 29 -3 33 -27 34 c -16 0 -88 0 -160 1 c -94 0 -133 4 -133 12 c 0 7 -12 9 -37 5 c -73 -12 -78 -12 -88 12 c -5 12 -15 22 -22 22 c -15 0 -46 57 -38 70 c 4 6 -22 10 -65 10 l -71 0 l 3 47 c 2 38 8 50 26 59 c 15 7 20 14 13 18 c -20 13 -11 33 20 46 c 21 9 26 15 18 21 c -8 4 -18 1 -25 -9 c -11 -14 -16 -15 -33 -5 c -20 13 -51 8 -51 -7 c 0 -4 7 -11 16 -14 c 12 -4 15 -2 10 9 c -3 8 -2 15 3 15 c 5 0 11 -15 14 -33 c 5 -32 -2 -53 -10 -29 c -3 9 -13 6 -34 -9 c -25 -17 -29 -27 -29 -65 c 0 -44 0 -44 -36 -44 c -28 0 -35 3 -32 17 c 2 10 13 22 26 28 c 12 5 22 18 22 27 c 0 10 5 18 11 18 c 8 0 7 5 -1 15 c -11 13 -10 14 3 9 c 9 -3 23 1 32 9 c 22 22 19 25 -17 18 c -26 -5 -34 -13 -38 -36 l -6 -30 l -6 28 c -3 18 0 33 9 43 c 14 13 13 17 -3 29 c -11 8 -24 15 -31 15 c -6 0 -9 9 -5 22 c 3 15 2 19 -7 14 c -6 -4 -10 -20 -9 -34 c 3 -25 0 -27 -37 -27 c -34 0 -40 -3 -43 -22 c -2 -16 -11 -23 -25 -24 c -17 -1 -18 -2 -4 -6 c 31 -8 19 -26 -14 -19 c -17 3 -35 6 -40 6 c -5 0 -9 7 -9 15 c 0 8 7 15 15 15 c 21 0 65 22 65 33 c 0 5 -9 7 -20 4 c -11 -3 -20 -1 -20 4 c 0 5 5 9 11 9 c 8 0 8 5 -1 15 c -7 8 -17 15 -22 15 c -6 0 -4 -8 3 -17 c 12 -15 12 -16 -3 -10 c -10 3 -18 2 -18 -3 c 0 -6 5 -10 11 -10 c 5 0 7 -5 4 -10 c -13 -21 -30 -8 -33 26 c -1 21 2 33 8 29 c 6 -3 10 4 10 16 c 0 17 -3 19 -14 9 c -8 -6 -17 -24 -19 -38 c -2 -15 -4 7 -4 48 c 0 66 1 70 7 30 l 8 -45 l -2 44 c 0 25 -6 46 -13 48 c -9 3 -13 -19 -15 -79 l -3 -82 l -67 1 c -38 1 -68 -2 -68 -8 c 0 -5 -8 -9 -17 -9 c -16 1 -16 2 2 16 c 11 8 25 12 32 10 c 8 -4 13 3 13 19 c 0 19 -5 25 -22 24 c -13 0 -17 -3 -10 -6 c 6 -2 12 -9 12 -15 c 0 -6 -6 -8 -14 -5 c -8 3 -16 -2 -19 -14 c -3 -10 -10 -19 -16 -19 c -22 0 -24 33 -6 79 c 10 25 19 69 21 96 c 2 37 0 43 -6 25 c -4 -14 -8 -39 -9 -56 c -1 -17 -4 -34 -9 -38 c -4 -4 -7 -13 -7 -19 c 0 -5 -6 -12 -13 -15 c -11 -3 -11 2 1 24 c 14 28 21 97 8 76 c -3 -5 -25 -11 -48 -13 c -23 -3 -39 -1 -36 4 c 3 5 -3 15 -13 23 c -18 13 -18 15 -1 28 c 23 18 22 24 -5 29 l -23 4 l 23 2 c 33 2 27 16 -18 37 c -25 12 -40 26 -41 39 l -1 20 l -5 -20 c -3 -11 -10 -24 -17 -28 c -7 -6 -4 -7 7 -3 c 14 4 17 0 15 -24 c -1 -16 -7 -26 -13 -23 c -5 3 -4 0 3 -8 c 6 -7 12 -22 11 -33 c 0 -12 -3 -15 -6 -8 c -2 6 -9 10 -14 6 c -5 -3 -5 -13 2 -25 c 14 -27 14 -91 0 -117 c -18 -34 -66 -53 -120 -50 c -27 2 -47 7 -43 12 c 3 5 -2 7 -11 3 c -11 -4 -14 -2 -10 9 c 6 17 -13 19 -21 2 c -4 -9 -5 -8 -5 2 c 2 33 -2 42 -15 37 c -9 -4 -13 -1 -10 6 c 6 15 -82 107 -102 107 c -9 0 -29 -8 -45 -17 c -23 -14 -29 -25 -29 -50 c 0 -18 8 -42 17 -53 c 26 -30 103 -25 103 6 c 0 19 7 18 37 -6 c 19 -15 21 -20 9 -20 c -9 0 -16 -4 -16 -9 c 0 -16 -56 -32 -102 -29 c -26 2 -45 5 -43 7 c 2 2 -5 11 -16 20 c -42 34 -40 123 4 160 c 9 7 15 17 12 21 c -3 5 4 6 15 3 c 11 -3 20 -1 20 4 c 0 12 52 12 61 0 c 3 -4 15 -9 27 -10 c 11 0 19 -4 17 -7 c -6 -9 71 -90 85 -90 c 6 0 9 -4 6 -9 c -3 -5 4 -20 15 -35 c 27 -34 77 -35 107 -3 c 29 30 28 58 -3 91 c -30 33 -49 33 -96 0 c -40 -28 -59 -25 -59 7 c 0 11 -4 18 -9 15 c -5 -3 -14 1 -21 9 c -9 11 -8 14 9 12 c 12 -1 21 -5 21 -9 c 0 -15 27 -8 43 10 c 10 10 15 21 13 23 c -3 2 19 2 47 -1 c 39 -4 55 -1 64 10 c 6 8 15 12 19 8 c 4 -4 1 -14 -5 -22 c -8 -9 -9 -16 -2 -21 c 17 -10 26 46 10 57 c -10 7 -8 7 9 3 c 13 -4 22 -2 22 4 c 0 16 -38 13 -47 -2 c -24 -41 -141 -24 -161 23 c -21 46 -32 94 -24 99 c 14 11 33 63 21 59 c -6 -2 -10 -7 -9 -12 c 3 -18 -25 -25 -32 -8 c -4 9 -4 -8 -1 -40 c 10 -98 -34 -148 -120 -135 c -21 3 -38 -1 -50 -11 c -16 -15 -18 -14 -24 6 c -3 12 -10 22 -16 22 c -6 0 -8 2 -5 5 c 8 9 38 -6 32 -16 c -3 -5 0 -9 5 -9 c 16 0 13 11 -10 36 c -25 27 -36 93 -19 124 c 11 20 10 22 -5 16 c -13 -5 -16 -2 -11 10 c 3 8 6 18 6 21 c 0 3 7 0 15 -7 c 12 -10 15 -10 15 0 c 0 7 7 10 16 6 c 14 -5 15 -4 5 8 c -11 13 -6 14 36 10 c 26 -2 55 -7 65 -10 c 9 -2 19 0 23 5 c 4 7 -1 8 -12 4 c -10 -3 -15 -3 -12 1 c 3 3 -8 23 -26 42 c -29 31 -36 34 -54 24 c -17 -9 -22 -8 -28 6 c -7 18 6 45 24 51 c 6 2 13 -4 15 -14 c 3 -12 8 -6 17 20 c 7 22 19 37 29 38 c 38 2 -46 28 -90 29 c -44 0 -53 -5 -50 -31 c 1 -4 -7 -14 -18 -24 c -18 -16 -20 -16 -49 1 c -29 17 -29 18 -15 46 c 17 33 10 98 -11 98 c -14 0 -28 -27 -20 -40 c 6 -10 -26 -23 -34 -14 c -3 4 0 9 6 11 c 15 6 18 83 3 83 c -6 0 -8 11 -4 25 c 5 21 3 24 -10 19 c -11 -4 -15 -13 -11 -25 c 9 -26 -26 -26 -49 0 c -17 18 -17 22 -2 43 c 35 49 20 62 -79 70 c -16 2 -31 9 -31 16 c -1 6 -2 23 -3 37 c 0 14 -5 25 -10 25 c -14 0 -21 -43 -9 -57 c 8 -10 7 -13 -4 -13 c -8 0 -19 16 -25 38 c -8 27 -11 -169 -12 -710 z" stroke-linecap="round" />
</g>
		<g transform="matrix(0.04 0 0 -0.05 169.03 260.94)"  >
<path style="stroke: rgb(0,0,0); stroke-width: 1; stroke-dasharray: none; stroke-linecap: butt; stroke-dashoffset: 0; stroke-linejoin: miter; stroke-miterlimit: 4; fill: rgb(0,0,0); fill-rule: nonzero; opacity: 1;"  transform=" translate(-416194.87, 285971.21)" d="m 417127.877476 -285243.402537 c -7 -14 -18 -18 -35 -15 c -33 7 -66 -5 -48 -16 c 11 -6 10 -15 -2 -42 l -14 -34 l -2 35 l -1 35 l -24 -52 c -17 -37 -30 -53 -43 -53 c -15 0 -21 -9 -26 -40 c -3 -21 -11 -51 -18 -65 l -12 -26 l -18 23 c -15 20 -18 20 -18 5 c 0 -15 -3 -16 -20 -7 c -17 9 -22 7 -32 -15 c -9 -19 -9 -28 0 -37 c 14 -14 16 -48 3 -48 c -5 0 -11 6 -14 14 c -5 14 -23 13 -67 0 c -9 -3 2 -13 28 -27 l 43 -21 l 29 34 l 30 35 l 0 -97 l 0 -98 l -65 1 c -63 1 -64 2 -75 34 c -9 27 -15 31 -35 27 c -20 -3 -25 -10 -25 -33 c 0 -27 3 -29 36 -29 c 32 0 35 -2 28 -22 c -3 -13 -10 -30 -15 -38 c -7 -13 -8 -12 -9 3 c 0 13 -9 17 -40 17 c -33 0 -40 -3 -40 -20 c 0 -12 -7 -20 -17 -20 c -17 -1 -17 -1 0 -11 c 28 -16 20 -28 -23 -35 c -38 -6 -40 -8 -40 -44 c 0 -34 -2 -37 -25 -32 c -18 3 -25 0 -25 -12 c 0 -9 -7 -19 -15 -22 c -8 -4 -15 -16 -15 -28 c 0 -21 -1 -21 -18 2 l -18 23 l -12 -26 c -7 -14 -12 -32 -12 -40 c 0 -8 -4 -15 -10 -15 c -5 0 -10 7 -10 15 c 0 8 -7 15 -15 15 c -9 0 -18 -7 -21 -15 c -4 -9 -19 -15 -35 -15 c -19 0 -29 -5 -29 -15 c 0 -8 -5 -26 -12 -40 l -12 -26 l -18 23 c -17 23 -18 22 -18 -54 l 0 -78 l -40 0 c -34 0 -40 -3 -40 -22 c 0 -21 -1 -21 -13 -3 c -22 29 -37 8 -37 -51 c 0 -47 -3 -55 -17 -53 c -10 1 -53 1 -95 0 l -78 -1 l 0 -40 c 0 -39 -13 -54 -23 -27 c -5 14 -23 14 -104 1 l -33 -5 l 20 -22 c 24 -26 41 -79 27 -88 c -5 -4 -18 -4 -28 -2 c -22 6 -38 25 -17 21 c 7 -2 13 6 13 17 c 0 17 -8 20 -47 23 c -43 3 -48 1 -48 -17 c 0 -12 -6 -21 -12 -21 c -10 0 -9 -3 1 -9 c 11 -7 10 -10 -5 -14 c -38 -12 -122 -6 -134 9 c -17 20 -37 17 -43 -6 c -6 -23 -39 -39 -45 -22 c -8 24 -20 11 -26 -27 c -7 -45 -24 -61 -40 -40 c -15 19 -161 20 -160 2 c 1 -7 2 -22 3 -33 c 1 -20 8 -20 991 -20 l 990 0 l -2 742 l -3 743 l -22 3 c -13 2 -26 -4 -32 -16 z" stroke-linecap="round" />
</g>
</g>
</g>
</svg>