<?xml version="1.0" standalone="no"?>
<!DOCTYPE svg PUBLIC "-//W3C//DTD SVG 20010904//EN"
 "http://www.w3.org/TR/2001/REC-SVG-20010904/DTD/svg10.dtd">
<svg version="1.0" xmlns="http://www.w3.org/2000/svg"
 width="710.000000pt" height="599.000000pt" viewBox="0 0 710.000000 599.000000"
 preserveAspectRatio="xMidYMid meet">

<g transform="translate(0.000000,599.000000) scale(0.100000,-0.100000)"
fill="#000000" stroke="none">
<path d="M5480 5255 c-8 -9 -30 -15 -58 -15 -28 0 -52 -6 -63 -16 -17 -15 -21
-15 -41 -2 -13 8 -56 18 -95 22 -64 5 -73 4 -73 -10 0 -12 -3 -14 -12 -6 -26
20 -77 24 -109 8 -18 -9 -41 -16 -51 -16 -11 0 -34 -11 -52 -25 -18 -14 -37
-25 -43 -25 -19 0 -63 -42 -63 -60 0 -30 -47 -77 -84 -84 -27 -5 -37 -14 -46
-39 -12 -31 -13 -32 -19 -8 -11 39 -25 35 -75 -21 -25 -29 -53 -60 -61 -69 -9
-10 -41 -19 -78 -22 -66 -7 -80 -17 -122 -88 -46 -77 -57 -93 -90 -124 -22
-20 -35 -42 -35 -57 0 -14 -13 -42 -30 -63 -16 -21 -30 -44 -30 -51 0 -7 -9
-18 -20 -24 -11 -6 -20 -18 -20 -27 0 -9 -17 -35 -37 -59 -21 -24 -47 -54 -58
-69 -14 -17 -35 -28 -68 -34 -26 -5 -56 -16 -65 -24 -21 -20 -99 -23 -165 -8
-33 7 -55 7 -67 1 -10 -6 -30 -10 -43 -10 -13 0 -47 -18 -75 -40 -27 -22 -53
-40 -56 -40 -4 0 -40 -23 -81 -51 -57 -40 -82 -65 -107 -108 -18 -31 -37 -65
-44 -76 -59 -102 -121 -194 -144 -212 -21 -17 -85 -16 -99 1 -16 20 -102 44
-181 51 -36 4 -76 13 -89 22 -21 13 -34 14 -99 3 -133 -21 -228 -93 -272 -203
-21 -55 -24 -58 -54 -55 -34 3 -45 26 -28 62 5 11 17 57 27 101 9 44 21 91 25
105 12 35 21 93 26 164 3 34 9 75 13 91 10 39 0 65 -48 123 -43 53 -71 102
-71 129 -1 25 -57 84 -124 128 -31 20 -60 43 -64 51 -8 14 -130 40 -140 30 -3
-3 -12 0 -20 6 -20 17 -74 11 -89 -9 -7 -9 -13 -29 -13 -44 0 -18 -6 -30 -18
-33 -10 -4 -46 -39 -80 -78 -47 -55 -62 -79 -62 -103 0 -21 -9 -40 -29 -59
-29 -28 -37 -51 -48 -136 -3 -25 -9 -52 -14 -61 -5 -10 2 -30 22 -60 31 -46
38 -89 16 -89 -17 0 -49 -34 -40 -43 3 -4 -1 -15 -9 -24 -18 -22 -16 -87 3
-110 8 -9 19 -26 24 -39 20 -44 146 -167 179 -173 22 -5 32 -13 34 -29 4 -28
24 -38 88 -45 34 -4 58 -1 70 7 18 12 49 19 153 31 24 3 48 8 52 11 5 2 26
-11 47 -31 29 -26 41 -46 46 -76 6 -40 5 -43 -52 -103 -79 -82 -82 -98 -83
-439 0 -385 -2 -393 -71 -497 -67 -103 -183 -215 -258 -252 -151 -74 -166 -75
-237 -13 -61 54 -100 59 -157 20 -20 -14 -43 -25 -51 -25 -33 0 -275 -230
-275 -260 0 -9 -5 -21 -12 -28 -7 -7 -18 -33 -25 -60 -18 -68 -6 -164 29 -234
26 -52 27 -59 13 -85 -8 -15 -26 -55 -41 -88 -15 -33 -31 -68 -35 -77 -20 -39
-4 -118 23 -118 31 0 119 54 148 90 35 44 72 59 95 40 28 -24 78 -3 148 63 60
55 147 168 147 190 0 4 25 31 55 60 30 28 55 57 55 63 0 7 12 27 27 45 25 30
28 41 28 109 0 48 5 83 13 92 19 24 117 67 212 95 47 13 123 39 170 57 47 19
126 46 175 61 90 28 90 28 193 130 83 84 102 107 102 132 0 16 9 49 21 72 l21
44 20 -21 c12 -12 22 -39 25 -66 6 -51 -11 -178 -32 -242 -28 -84 -110 -211
-205 -317 -51 -57 -52 -57 -109 -57 -65 0 -78 -10 -126 -94 -24 -42 -27 -53
-18 -77 6 -16 10 -37 8 -46 -15 -73 -14 -81 10 -109 14 -16 25 -39 25 -50 0
-12 7 -24 15 -28 8 -3 15 -13 15 -22 0 -9 13 -33 30 -54 19 -24 30 -50 30 -69
0 -20 5 -31 14 -31 7 0 25 -9 40 -21 19 -15 26 -30 26 -54 0 -51 26 -63 165
-75 66 -6 142 -13 170 -16 27 -4 114 -3 192 1 143 7 144 7 158 34 13 27 12 29
-38 79 -30 30 -62 52 -74 52 -27 0 -44 21 -36 48 12 49 -7 110 -51 159 -24 26
-47 59 -51 73 -4 14 -22 41 -40 60 -18 19 -42 50 -52 69 -12 21 -30 38 -47 42
-36 10 -56 27 -56 50 0 39 114 202 192 274 42 40 106 115 141 165 21 30 62 85
101 133 18 24 35 66 48 119 32 130 33 195 3 342 -18 90 -23 132 -16 139 6 6
64 13 130 15 l118 4 19 -27 c38 -53 76 -95 89 -95 7 0 19 -7 26 -17 17 -20
109 -90 154 -118 74 -45 153 -105 158 -120 4 -8 18 -20 32 -25 23 -9 25 -15
25 -67 -1 -32 -7 -83 -15 -113 -54 -211 -89 -337 -97 -347 -6 -8 -26 -10 -58
-6 -68 8 -97 -2 -116 -40 -9 -17 -35 -54 -59 -82 -50 -60 -96 -148 -120 -230
-10 -33 -24 -76 -31 -95 -31 -85 -35 -109 -25 -147 6 -21 11 -55 11 -75 0 -41
6 -57 59 -170 26 -56 41 -78 54 -78 11 0 32 -9 48 -21 24 -17 29 -27 29 -62 0
-33 7 -51 31 -80 l30 -37 138 0 c107 0 141 3 159 16 27 19 28 36 2 59 -27 24
-25 46 5 81 14 16 29 41 32 56 3 15 12 33 19 39 8 6 14 23 14 38 0 14 7 35 15
45 8 11 15 34 15 51 0 17 9 50 20 73 11 22 20 50 20 61 0 11 5 23 10 26 14 8
13 124 -2 182 -6 27 -20 68 -31 91 -11 24 -22 63 -25 87 -3 35 -13 52 -43 80
-22 20 -39 44 -39 55 0 29 55 163 128 310 65 132 68 135 97 132 80 -8 146 0
210 28 17 8 112 16 225 21 19 1 48 -23 128 -107 57 -60 130 -139 163 -177 l59
-68 0 -68 c0 -38 6 -81 14 -97 8 -16 17 -56 21 -88 4 -37 16 -73 31 -95 13
-20 24 -43 24 -53 0 -10 17 -43 38 -75 21 -32 42 -67 48 -78 6 -11 34 -36 62
-55 34 -23 56 -48 67 -73 11 -28 26 -43 58 -58 114 -54 127 -65 127 -111 0
-22 13 -35 72 -75 40 -26 80 -56 90 -66 26 -25 61 -21 92 12 l28 30 -21 27
c-11 15 -21 33 -21 40 0 7 -20 36 -45 64 -25 28 -45 58 -45 68 0 10 18 27 44
40 83 44 98 69 109 179 8 78 6 121 -7 213 -9 63 -19 133 -22 155 -6 43 -36
113 -67 159 -21 30 -105 88 -172 119 -52 24 -286 37 -310 17 -53 -44 -143 91
-207 308 -13 45 -7 57 45 90 82 52 307 264 332 312 34 68 65 174 65 223 0 23
5 48 10 53 18 18 22 143 8 254 -16 129 -11 175 18 176 30 2 44 12 44 34 0 37
30 135 50 162 16 22 19 36 13 74 -5 37 -3 48 10 56 10 5 17 18 17 28 0 10 5
22 10 25 12 7 97 -23 170 -60 54 -27 106 -31 160 -12 49 17 60 26 60 46 0 11
18 26 52 42 74 35 108 70 107 111 0 36 -15 49 -219 187 -109 75 -170 129 -170
152 0 10 20 34 45 55 26 21 45 45 45 57 0 31 37 84 70 97 31 13 76 70 103 132
23 51 35 97 41 165 5 55 3 64 -14 73 -11 6 -26 23 -34 38 -9 18 -30 33 -63 45
-35 12 -57 30 -83 63 -71 94 -91 114 -118 114 -14 0 -44 15 -68 35 -23 19 -47
35 -52 35 -5 0 -15 7 -22 15 -7 8 -20 15 -30 15 -10 0 -23 -7 -30 -15z"/>
</g>
</svg>
